%
M48
M72
T01C0.0197
T02C0.0354
T03C0.0360
T04C0.0394
T05C0.0400
%
T01
X29550Y5900
X29550Y7000
X29750Y9000
X32450Y8400
X33550Y9900
X33550Y10700
X34650Y11200
X35150Y12300
X35750Y13900
X35050Y14700
X34150Y14300
X33250Y14700
X32550Y14400
X31950Y14700
X32550Y16100
X33250Y16300
X34150Y16700
X34650Y16700
X35050Y16300
X35750Y16800
X36450Y17400
X35550Y17900
X36250Y18200
X34650Y17900
X34050Y17900
X33350Y18400
X32950Y17900
X32550Y17300
X32050Y17900
X32050Y18400
X33660Y20390
X33250Y21000
X32950Y21600
X32650Y22200
X32250Y22800
X31950Y23400
X31650Y24000
X34250Y23600
X34350Y24400
X34250Y22800
X34250Y22100
X34450Y20400
X36020Y20100
X36250Y20700
X36350Y21300
X36450Y22700
X36150Y25800
X38050Y16000
X38550Y15700
X39050Y14600
X39050Y13600
X39050Y12600
X37850Y11700
X37060Y10520
X32950Y12200
X31550Y11600
X29750Y12900
X29550Y14100
X29750Y14900
X29250Y15100
X36450Y15400
X36650Y5800
X36650Y5000
X35050Y3200
X34450Y5100
X32950Y800
T02
X21481Y3924
X21481Y4924
X21481Y5924
X21481Y6924
X21481Y7924
X21481Y8924
X21481Y9924
X21481Y10924
X21481Y11924
X21481Y12924
X21481Y13924
X21481Y14924
X21481Y15924
X21481Y16924
X21481Y17924
X21481Y18924
X21481Y19924
X21481Y20924
X21481Y21924
X21481Y22924
X21481Y23924
X21481Y24924
X21481Y25924
X21481Y26924
X21481Y27924
X23450Y27924
X23450Y26924
X23450Y25924
X23450Y24924
X23450Y23924
X23450Y22924
X23450Y21924
X23450Y20924
X23450Y19924
X23450Y18924
X23450Y17924
X23450Y16924
X23450Y15924
X23450Y14924
X23450Y13924
X23450Y12924
X23450Y11924
X23450Y10924
X23450Y9924
X23450Y8924
X23450Y7924
X23450Y6924
X23450Y5924
X23450Y4924
X23450Y3924
T03
X30050Y2400
X30050Y1400
X31750Y1800
X31750Y800
T04
X35750Y6650
X35750Y8225
X35750Y9800
X35900Y4100
X37475Y4100
X39050Y4100
X35750Y22050
X35750Y23625
X35750Y25200
X36050Y27700
X37625Y27700
X39200Y27700
T05
X27350Y2800
X27350Y1800
X27350Y800
X28350Y800
X28350Y1800
X28350Y2800
X28350Y3800
X27350Y3800
X27350Y4800
X27350Y5800
X27350Y6800
X27350Y7800
X27350Y8800
X27350Y9800
X28350Y9800
X28350Y8800
X28350Y7800
X28350Y6800
X28350Y5800
X28350Y4800
X28350Y10800
X28350Y11800
X28350Y12800
X28350Y13800
X28350Y14800
X28350Y15800
X27350Y15800
X27350Y14800
X27350Y13800
X27350Y12800
X27350Y11800
X27350Y10800
X27350Y16800
X27350Y17800
X27350Y18800
X27350Y19800
X27350Y20800
X27350Y21800
X27350Y22800
X28350Y22800
X28350Y21800
X28350Y20800
X28350Y19800
X28350Y18800
X28350Y17800
X28350Y16800
X28350Y23800
X28350Y24800
X28350Y25800
X28350Y26800
X28350Y27800
X28350Y28800
X27350Y28800
X27350Y27800
X27350Y26800
X27350Y25800
X27350Y24800
X27350Y23800
X27350Y29800
X27350Y30800
X28350Y30800
X28350Y29800
M30
