G75*
%MOIN*%
%OFA0B0*%
%FSLAX24Y24*%
%IPPOS*%
%LPD*%
%AMOC8*
5,1,8,0,0,1.08239X$1,22.5*
%
%ADD10C,0.0000*%
%ADD11C,0.0631*%
%ADD12R,0.3583X0.0631*%
%ADD13R,0.0434X0.0473*%
%ADD14OC8,0.0640*%
%ADD15C,0.0600*%
%ADD16R,0.0591X0.0434*%
%ADD17R,0.0434X0.0591*%
%ADD18R,0.0650X0.0749*%
%ADD19R,0.0709X0.0709*%
%ADD20R,0.0552X0.0631*%
D10*
X000450Y003000D02*
X018850Y003000D01*
X018850Y000100D01*
X039720Y000100D01*
X039720Y031596D01*
X018850Y031596D01*
X018850Y028700D01*
X000450Y028700D01*
X000450Y003000D01*
D11*
X021481Y003924D03*
X021481Y004924D03*
X021481Y005924D03*
X021481Y006924D03*
X021481Y007924D03*
X021481Y008924D03*
X021481Y009924D03*
X021481Y010924D03*
X021481Y011924D03*
X021481Y012924D03*
X021481Y013924D03*
X021481Y014924D03*
X021481Y015924D03*
X021481Y016924D03*
X021481Y017924D03*
X021481Y018924D03*
X021481Y019924D03*
X021481Y020924D03*
X021481Y021924D03*
X021481Y022924D03*
X021481Y023924D03*
X021481Y024924D03*
X021481Y025924D03*
X021481Y026924D03*
X021481Y027924D03*
X023450Y027924D03*
X023450Y026924D03*
X023450Y025924D03*
X023450Y024924D03*
X023450Y023924D03*
X023450Y022924D03*
X023450Y021924D03*
X023450Y020924D03*
X023450Y019924D03*
X023450Y018924D03*
X023450Y017924D03*
X023450Y016924D03*
X023450Y015924D03*
X023450Y014924D03*
X023450Y013924D03*
X023450Y012924D03*
X023450Y011924D03*
X023450Y010924D03*
X023450Y009924D03*
X023450Y008924D03*
X023450Y007924D03*
X023450Y006924D03*
X023450Y005924D03*
X023450Y004924D03*
X023450Y003924D03*
D12*
X002372Y004078D03*
X002372Y005062D03*
X002372Y006046D03*
X002372Y007031D03*
X002372Y008015D03*
X002372Y008999D03*
X002372Y009983D03*
X002372Y010968D03*
X002372Y011952D03*
X002372Y012936D03*
X002372Y013920D03*
X002372Y014905D03*
X002372Y015889D03*
X002372Y016873D03*
X002372Y017857D03*
X002372Y018842D03*
X002372Y019826D03*
X002372Y020810D03*
X002372Y021794D03*
X002372Y022779D03*
X002372Y023763D03*
X002372Y024747D03*
X002372Y025731D03*
X002372Y026716D03*
X002372Y027700D03*
D13*
X005615Y026700D03*
X006285Y026700D03*
X007615Y025700D03*
X008285Y025700D03*
X006285Y024700D03*
X005615Y024700D03*
X007615Y023800D03*
X008285Y023800D03*
X006285Y022800D03*
X005615Y022800D03*
X007615Y021800D03*
X008285Y021800D03*
X006285Y020800D03*
X005615Y020800D03*
X007615Y019800D03*
X008285Y019800D03*
X006285Y018800D03*
X005615Y018800D03*
X007615Y017900D03*
X008285Y017900D03*
X006285Y016900D03*
X005615Y016900D03*
X007615Y015900D03*
X008285Y015900D03*
X006285Y014900D03*
X005615Y014900D03*
X007615Y013900D03*
X008285Y013900D03*
X006285Y012900D03*
X005615Y012900D03*
X007615Y011900D03*
X008285Y011900D03*
X006285Y010900D03*
X005615Y010900D03*
X007615Y010000D03*
X008285Y010000D03*
X006285Y009000D03*
X005615Y009000D03*
X007615Y008000D03*
X008285Y008000D03*
X006285Y007000D03*
X005615Y007000D03*
X007615Y006000D03*
X008285Y006000D03*
X006285Y005000D03*
X005615Y005000D03*
X007615Y004100D03*
X008285Y004100D03*
X030415Y020400D03*
X030415Y021000D03*
X030415Y021600D03*
X030415Y022200D03*
X030415Y022800D03*
X030415Y023400D03*
X030415Y024000D03*
X031085Y024000D03*
X031085Y023400D03*
X031085Y022800D03*
X031085Y022200D03*
X031085Y021600D03*
X031085Y021000D03*
X031085Y020400D03*
X031085Y025500D03*
X030415Y025500D03*
X031815Y026100D03*
X032485Y026100D03*
X031085Y026700D03*
X030415Y026700D03*
X031815Y027400D03*
X032485Y027400D03*
X033215Y028300D03*
X033885Y028300D03*
X032485Y028700D03*
X031815Y028700D03*
X031085Y029100D03*
X030415Y029100D03*
X030415Y027900D03*
X031085Y027900D03*
X037615Y014600D03*
X038285Y014600D03*
X038285Y013600D03*
X037615Y013600D03*
X037615Y012600D03*
X038285Y012600D03*
X008285Y027700D03*
X007615Y027700D03*
D14*
X027350Y027800D03*
X027350Y026800D03*
X027350Y025800D03*
X027350Y024800D03*
X027350Y023800D03*
X028350Y023800D03*
X028350Y024800D03*
X028350Y025800D03*
X028350Y026800D03*
X028350Y027800D03*
X028350Y028800D03*
X027350Y028800D03*
X027350Y029800D03*
X027350Y030800D03*
X028350Y030800D03*
X028350Y029800D03*
X028350Y022800D03*
X028350Y021800D03*
X028350Y020800D03*
X028350Y019800D03*
X028350Y018800D03*
X028350Y017800D03*
X028350Y016800D03*
X027350Y016800D03*
X027350Y017800D03*
X027350Y018800D03*
X027350Y019800D03*
X027350Y020800D03*
X027350Y021800D03*
X027350Y022800D03*
X027350Y015800D03*
X027350Y014800D03*
X027350Y013800D03*
X027350Y012800D03*
X027350Y011800D03*
X027350Y010800D03*
X028350Y010800D03*
X028350Y011800D03*
X028350Y012800D03*
X028350Y013800D03*
X028350Y014800D03*
X028350Y015800D03*
X028350Y009800D03*
X028350Y008800D03*
X028350Y007800D03*
X028350Y006800D03*
X028350Y005800D03*
X028350Y004800D03*
X027350Y004800D03*
X027350Y005800D03*
X027350Y006800D03*
X027350Y007800D03*
X027350Y008800D03*
X027350Y009800D03*
X027350Y003800D03*
X027350Y002800D03*
X027350Y001800D03*
X027350Y000800D03*
X028350Y000800D03*
X028350Y001800D03*
X028350Y002800D03*
X028350Y003800D03*
D15*
X029770Y002400D02*
X030330Y002400D01*
X030330Y001400D02*
X029770Y001400D01*
X031470Y001800D02*
X032030Y001800D01*
X032030Y000800D02*
X031470Y000800D01*
D16*
X032283Y003326D03*
X032283Y004074D03*
X031417Y003700D03*
D17*
X033476Y003533D03*
X034224Y003533D03*
X033850Y002667D03*
D18*
X033787Y001200D03*
X034713Y001200D03*
X030413Y004500D03*
X029487Y004500D03*
X032787Y005700D03*
X033713Y005700D03*
D19*
X035750Y006650D03*
X035750Y008225D03*
X035750Y009800D03*
X035900Y004100D03*
X037475Y004100D03*
X039050Y004100D03*
X035750Y022050D03*
X035750Y023625D03*
X035750Y025200D03*
X036050Y027700D03*
X037625Y027700D03*
X039200Y027700D03*
D20*
X036824Y024400D03*
X036076Y024400D03*
X034424Y017300D03*
X033676Y017300D03*
X032324Y016700D03*
X031576Y016700D03*
X031476Y015400D03*
X032224Y015400D03*
X033176Y015500D03*
X033924Y015500D03*
X034376Y015500D03*
X035124Y015500D03*
X036076Y016000D03*
X036824Y016000D03*
X036824Y014700D03*
X036076Y014700D03*
X035976Y011900D03*
X036724Y011900D03*
X033924Y008700D03*
X033176Y008700D03*
X035276Y005400D03*
X036024Y005400D03*
M02*
