G75*
%MOIN*%
%OFA0B0*%
%FSLAX24Y24*%
%IPPOS*%
%LPD*%
%AMOC8*
5,1,8,0,0,1.08239X$1,22.5*
%
%ADD10C,0.0000*%
%ADD11R,0.3543X0.0591*%
%ADD12R,0.0394X0.0433*%
%ADD13R,0.0118X0.0394*%
%ADD14R,0.0394X0.0118*%
%ADD15R,0.0551X0.0394*%
%ADD16R,0.0512X0.0591*%
%ADD17R,0.0709X0.0630*%
%ADD18R,0.0315X0.0315*%
%ADD19R,0.0433X0.0394*%
D10*
X000450Y003000D02*
X018850Y003000D01*
X018850Y000100D01*
X039720Y000100D01*
X039720Y031596D01*
X018850Y031596D01*
X018850Y028700D01*
X000450Y028700D01*
X000450Y003000D01*
D11*
X002372Y004078D03*
X002372Y005062D03*
X002372Y006046D03*
X002372Y007031D03*
X002372Y008015D03*
X002372Y008999D03*
X002372Y009983D03*
X002372Y010968D03*
X002372Y011952D03*
X002372Y012936D03*
X002372Y013920D03*
X002372Y014905D03*
X002372Y015889D03*
X002372Y016873D03*
X002372Y017857D03*
X002372Y018842D03*
X002372Y019826D03*
X002372Y020810D03*
X002372Y021794D03*
X002372Y022779D03*
X002372Y023763D03*
X002372Y024747D03*
X002372Y025731D03*
X002372Y026716D03*
X002372Y027700D03*
D12*
X005615Y026700D03*
X006285Y026700D03*
X007615Y025700D03*
X008285Y025700D03*
X006285Y024700D03*
X005615Y024700D03*
X007615Y023800D03*
X008285Y023800D03*
X006285Y022800D03*
X005615Y022800D03*
X007615Y021800D03*
X008285Y021800D03*
X006285Y020800D03*
X005615Y020800D03*
X007615Y019800D03*
X008285Y019800D03*
X006285Y018800D03*
X005615Y018800D03*
X007615Y017900D03*
X008285Y017900D03*
X006285Y016900D03*
X005615Y016900D03*
X007615Y015900D03*
X008285Y015900D03*
X006285Y014900D03*
X005615Y014900D03*
X007615Y013900D03*
X008285Y013900D03*
X006285Y012900D03*
X005615Y012900D03*
X007615Y011900D03*
X008285Y011900D03*
X006285Y010900D03*
X005615Y010900D03*
X007615Y010000D03*
X008285Y010000D03*
X006285Y009000D03*
X005615Y009000D03*
X007615Y008000D03*
X008285Y008000D03*
X006285Y007000D03*
X005615Y007000D03*
X007615Y006000D03*
X008285Y006000D03*
X006285Y005000D03*
X005615Y005000D03*
X007615Y004100D03*
X008285Y004100D03*
X029615Y015700D03*
X030285Y015700D03*
X030285Y016500D03*
X029615Y016500D03*
X029615Y017300D03*
X030285Y017300D03*
X030285Y018100D03*
X029615Y018100D03*
X029615Y018900D03*
X030285Y018900D03*
X030285Y019700D03*
X029615Y019700D03*
X029615Y020500D03*
X030285Y020500D03*
X032515Y027100D03*
X033185Y027100D03*
X033185Y028100D03*
X032515Y028100D03*
X031685Y028600D03*
X031015Y028600D03*
X031015Y027600D03*
X031685Y027600D03*
X032515Y029100D03*
X033185Y029100D03*
X033185Y030100D03*
X032515Y030100D03*
X031685Y030600D03*
X031015Y030600D03*
X031015Y029600D03*
X031685Y029600D03*
X030585Y011700D03*
X029915Y011700D03*
X031115Y010900D03*
X031785Y010900D03*
X032315Y010700D03*
X032985Y010700D03*
X031985Y003000D03*
X031315Y003000D03*
X008285Y027700D03*
X007615Y027700D03*
D13*
X031888Y019140D03*
X032085Y019140D03*
X032282Y019140D03*
X032479Y019140D03*
X032676Y019140D03*
X032872Y019140D03*
X033069Y019140D03*
X033266Y019140D03*
X033463Y019140D03*
X033660Y019140D03*
X033857Y019140D03*
X034054Y019140D03*
X034250Y019140D03*
X034447Y019140D03*
X034644Y019140D03*
X034841Y019140D03*
X035038Y019140D03*
X035235Y019140D03*
X035431Y019140D03*
X035628Y019140D03*
X035825Y019140D03*
X036022Y019140D03*
X036219Y019140D03*
X036416Y019140D03*
X036613Y019140D03*
X036613Y013037D03*
X036416Y013037D03*
X036219Y013037D03*
X036022Y013037D03*
X035825Y013037D03*
X035628Y013037D03*
X035431Y013037D03*
X035235Y013037D03*
X035038Y013037D03*
X034841Y013037D03*
X034644Y013037D03*
X034447Y013037D03*
X034250Y013037D03*
X034054Y013037D03*
X033857Y013037D03*
X033660Y013037D03*
X033463Y013037D03*
X033266Y013037D03*
X033069Y013037D03*
X032872Y013037D03*
X032676Y013037D03*
X032479Y013037D03*
X032282Y013037D03*
X032085Y013037D03*
X031888Y013037D03*
D14*
X031199Y013726D03*
X031199Y013923D03*
X031199Y014120D03*
X031199Y014317D03*
X031199Y014514D03*
X031199Y014711D03*
X031199Y014907D03*
X031199Y015104D03*
X031199Y015301D03*
X031199Y015498D03*
X031199Y015695D03*
X031199Y015892D03*
X031199Y016088D03*
X031199Y016285D03*
X031199Y016482D03*
X031199Y016679D03*
X031199Y016876D03*
X031199Y017073D03*
X031199Y017270D03*
X031199Y017466D03*
X031199Y017663D03*
X031199Y017860D03*
X031199Y018057D03*
X031199Y018254D03*
X031199Y018451D03*
X037302Y018451D03*
X037302Y018254D03*
X037302Y018057D03*
X037302Y017860D03*
X037302Y017663D03*
X037302Y017466D03*
X037302Y017270D03*
X037302Y017073D03*
X037302Y016876D03*
X037302Y016679D03*
X037302Y016482D03*
X037302Y016285D03*
X037302Y016088D03*
X037302Y015892D03*
X037302Y015695D03*
X037302Y015498D03*
X037302Y015301D03*
X037302Y015104D03*
X037302Y014907D03*
X037302Y014711D03*
X037302Y014514D03*
X037302Y014317D03*
X037302Y014120D03*
X037302Y013923D03*
X037302Y013726D03*
D15*
X032883Y009874D03*
X032017Y009500D03*
X032883Y009126D03*
X030483Y010300D03*
X029617Y009926D03*
X029617Y010674D03*
D16*
X032676Y011500D03*
X033424Y011500D03*
X032524Y004700D03*
X031776Y004700D03*
D17*
X031150Y005773D03*
X031150Y007427D03*
X033150Y007427D03*
X033150Y005773D03*
D18*
X032950Y003095D03*
X032950Y002505D03*
X032950Y001895D03*
X032950Y001305D03*
X031045Y009000D03*
X030455Y009000D03*
X038455Y013100D03*
X039045Y013100D03*
X039045Y014100D03*
X038455Y014100D03*
X038455Y015100D03*
X039045Y015100D03*
D19*
X031250Y010235D03*
X031250Y009565D03*
M02*
