G75*
%MOIN*%
%OFA0B0*%
%FSLAX24Y24*%
%IPPOS*%
%LPD*%
%AMOC8*
5,1,8,0,0,1.08239X$1,22.5*
%
%ADD10C,0.0000*%
%ADD11C,0.0591*%
%ADD12R,0.3543X0.0591*%
%ADD13R,0.0394X0.0433*%
%ADD14OC8,0.0600*%
%ADD15C,0.0560*%
%ADD16R,0.0118X0.0394*%
%ADD17R,0.0394X0.0118*%
%ADD18R,0.0551X0.0394*%
%ADD19R,0.0669X0.0669*%
%ADD20R,0.0512X0.0591*%
%ADD21R,0.0709X0.0630*%
%ADD22R,0.0315X0.0315*%
%ADD23R,0.0433X0.0394*%
%ADD24C,0.0394*%
%ADD25C,0.0320*%
%ADD26C,0.0240*%
%ADD27C,0.0100*%
%ADD28C,0.0160*%
%ADD29C,0.0120*%
%ADD30C,0.0400*%
D10*
X000450Y003000D02*
X018850Y003000D01*
X018850Y000100D01*
X039720Y000100D01*
X039720Y031596D01*
X018850Y031596D01*
X018850Y028700D01*
X000450Y028700D01*
X000450Y003000D01*
D11*
X021481Y003924D03*
X021481Y004924D03*
X021481Y005924D03*
X021481Y006924D03*
X021481Y007924D03*
X021481Y008924D03*
X021481Y009924D03*
X021481Y010924D03*
X021481Y011924D03*
X021481Y012924D03*
X021481Y013924D03*
X021481Y014924D03*
X021481Y015924D03*
X021481Y016924D03*
X021481Y017924D03*
X021481Y018924D03*
X021481Y019924D03*
X021481Y020924D03*
X021481Y021924D03*
X021481Y022924D03*
X021481Y023924D03*
X021481Y024924D03*
X021481Y025924D03*
X021481Y026924D03*
X021481Y027924D03*
X023450Y027924D03*
X023450Y026924D03*
X023450Y025924D03*
X023450Y024924D03*
X023450Y023924D03*
X023450Y022924D03*
X023450Y021924D03*
X023450Y020924D03*
X023450Y019924D03*
X023450Y018924D03*
X023450Y017924D03*
X023450Y016924D03*
X023450Y015924D03*
X023450Y014924D03*
X023450Y013924D03*
X023450Y012924D03*
X023450Y011924D03*
X023450Y010924D03*
X023450Y009924D03*
X023450Y008924D03*
X023450Y007924D03*
X023450Y006924D03*
X023450Y005924D03*
X023450Y004924D03*
X023450Y003924D03*
D12*
X002372Y004078D03*
X002372Y005062D03*
X002372Y006046D03*
X002372Y007031D03*
X002372Y008015D03*
X002372Y008999D03*
X002372Y009983D03*
X002372Y010968D03*
X002372Y011952D03*
X002372Y012936D03*
X002372Y013920D03*
X002372Y014905D03*
X002372Y015889D03*
X002372Y016873D03*
X002372Y017857D03*
X002372Y018842D03*
X002372Y019826D03*
X002372Y020810D03*
X002372Y021794D03*
X002372Y022779D03*
X002372Y023763D03*
X002372Y024747D03*
X002372Y025731D03*
X002372Y026716D03*
X002372Y027700D03*
D13*
X005615Y026700D03*
X006285Y026700D03*
X007615Y025700D03*
X008285Y025700D03*
X006285Y024700D03*
X005615Y024700D03*
X007615Y023800D03*
X008285Y023800D03*
X006285Y022800D03*
X005615Y022800D03*
X007615Y021800D03*
X008285Y021800D03*
X006285Y020800D03*
X005615Y020800D03*
X007615Y019800D03*
X008285Y019800D03*
X006285Y018800D03*
X005615Y018800D03*
X007615Y017900D03*
X008285Y017900D03*
X006285Y016900D03*
X005615Y016900D03*
X007615Y015900D03*
X008285Y015900D03*
X006285Y014900D03*
X005615Y014900D03*
X007615Y013900D03*
X008285Y013900D03*
X006285Y012900D03*
X005615Y012900D03*
X007615Y011900D03*
X008285Y011900D03*
X006285Y010900D03*
X005615Y010900D03*
X007615Y010000D03*
X008285Y010000D03*
X006285Y009000D03*
X005615Y009000D03*
X007615Y008000D03*
X008285Y008000D03*
X006285Y007000D03*
X005615Y007000D03*
X007615Y006000D03*
X008285Y006000D03*
X006285Y005000D03*
X005615Y005000D03*
X007615Y004100D03*
X008285Y004100D03*
X029615Y015700D03*
X030285Y015700D03*
X030285Y016500D03*
X029615Y016500D03*
X029615Y017300D03*
X030285Y017300D03*
X030285Y018100D03*
X029615Y018100D03*
X029615Y018900D03*
X030285Y018900D03*
X030285Y019700D03*
X029615Y019700D03*
X029615Y020500D03*
X030285Y020500D03*
X032515Y027100D03*
X033185Y027100D03*
X033185Y028100D03*
X032515Y028100D03*
X031685Y028600D03*
X031015Y028600D03*
X031015Y027600D03*
X031685Y027600D03*
X032515Y029100D03*
X033185Y029100D03*
X033185Y030100D03*
X032515Y030100D03*
X031685Y030600D03*
X031015Y030600D03*
X031015Y029600D03*
X031685Y029600D03*
X030585Y011700D03*
X029915Y011700D03*
X031115Y010900D03*
X031785Y010900D03*
X032315Y010700D03*
X032985Y010700D03*
X031985Y003000D03*
X031315Y003000D03*
X008285Y027700D03*
X007615Y027700D03*
D14*
X027350Y027800D03*
X027350Y026800D03*
X027350Y025800D03*
X027350Y024800D03*
X027350Y023800D03*
X028350Y023800D03*
X028350Y024800D03*
X028350Y025800D03*
X028350Y026800D03*
X028350Y027800D03*
X028350Y028800D03*
X027350Y028800D03*
X027350Y029800D03*
X027350Y030800D03*
X028350Y030800D03*
X028350Y029800D03*
X028350Y022800D03*
X028350Y021800D03*
X028350Y020800D03*
X028350Y019800D03*
X028350Y018800D03*
X028350Y017800D03*
X028350Y016800D03*
X027350Y016800D03*
X027350Y017800D03*
X027350Y018800D03*
X027350Y019800D03*
X027350Y020800D03*
X027350Y021800D03*
X027350Y022800D03*
X027350Y015800D03*
X027350Y014800D03*
X027350Y013800D03*
X027350Y012800D03*
X027350Y011800D03*
X027350Y010800D03*
X028350Y010800D03*
X028350Y011800D03*
X028350Y012800D03*
X028350Y013800D03*
X028350Y014800D03*
X028350Y015800D03*
X028350Y009800D03*
X028350Y008800D03*
X028350Y007800D03*
X028350Y006800D03*
X028350Y005800D03*
X028350Y004800D03*
X027350Y004800D03*
X027350Y005800D03*
X027350Y006800D03*
X027350Y007800D03*
X027350Y008800D03*
X027350Y009800D03*
X027350Y003800D03*
X027350Y002800D03*
X027350Y001800D03*
X027350Y000800D03*
X028350Y000800D03*
X028350Y001800D03*
X028350Y002800D03*
X028350Y003800D03*
D15*
X029770Y002400D02*
X030330Y002400D01*
X030330Y001400D02*
X029770Y001400D01*
X031470Y001800D02*
X032030Y001800D01*
X032030Y000800D02*
X031470Y000800D01*
D16*
X031888Y013037D03*
X032085Y013037D03*
X032282Y013037D03*
X032479Y013037D03*
X032676Y013037D03*
X032872Y013037D03*
X033069Y013037D03*
X033266Y013037D03*
X033463Y013037D03*
X033660Y013037D03*
X033857Y013037D03*
X034054Y013037D03*
X034250Y013037D03*
X034447Y013037D03*
X034644Y013037D03*
X034841Y013037D03*
X035038Y013037D03*
X035235Y013037D03*
X035431Y013037D03*
X035628Y013037D03*
X035825Y013037D03*
X036022Y013037D03*
X036219Y013037D03*
X036416Y013037D03*
X036613Y013037D03*
X036613Y019140D03*
X036416Y019140D03*
X036219Y019140D03*
X036022Y019140D03*
X035825Y019140D03*
X035628Y019140D03*
X035431Y019140D03*
X035235Y019140D03*
X035038Y019140D03*
X034841Y019140D03*
X034644Y019140D03*
X034447Y019140D03*
X034250Y019140D03*
X034054Y019140D03*
X033857Y019140D03*
X033660Y019140D03*
X033463Y019140D03*
X033266Y019140D03*
X033069Y019140D03*
X032872Y019140D03*
X032676Y019140D03*
X032479Y019140D03*
X032282Y019140D03*
X032085Y019140D03*
X031888Y019140D03*
D17*
X031199Y018451D03*
X031199Y018254D03*
X031199Y018057D03*
X031199Y017860D03*
X031199Y017663D03*
X031199Y017466D03*
X031199Y017270D03*
X031199Y017073D03*
X031199Y016876D03*
X031199Y016679D03*
X031199Y016482D03*
X031199Y016285D03*
X031199Y016088D03*
X031199Y015892D03*
X031199Y015695D03*
X031199Y015498D03*
X031199Y015301D03*
X031199Y015104D03*
X031199Y014907D03*
X031199Y014711D03*
X031199Y014514D03*
X031199Y014317D03*
X031199Y014120D03*
X031199Y013923D03*
X031199Y013726D03*
X037302Y013726D03*
X037302Y013923D03*
X037302Y014120D03*
X037302Y014317D03*
X037302Y014514D03*
X037302Y014711D03*
X037302Y014907D03*
X037302Y015104D03*
X037302Y015301D03*
X037302Y015498D03*
X037302Y015695D03*
X037302Y015892D03*
X037302Y016088D03*
X037302Y016285D03*
X037302Y016482D03*
X037302Y016679D03*
X037302Y016876D03*
X037302Y017073D03*
X037302Y017270D03*
X037302Y017466D03*
X037302Y017663D03*
X037302Y017860D03*
X037302Y018057D03*
X037302Y018254D03*
X037302Y018451D03*
D18*
X029617Y010674D03*
X029617Y009926D03*
X030483Y010300D03*
X032017Y009500D03*
X032883Y009874D03*
X032883Y009126D03*
D19*
X035750Y009800D03*
X035750Y008225D03*
X035750Y006650D03*
X035900Y004100D03*
X037475Y004100D03*
X039050Y004100D03*
X035750Y022050D03*
X035750Y023625D03*
X035750Y025200D03*
X036050Y027700D03*
X037625Y027700D03*
X039200Y027700D03*
D20*
X033424Y011500D03*
X032676Y011500D03*
X032524Y004700D03*
X031776Y004700D03*
D21*
X031150Y005773D03*
X031150Y007427D03*
X033150Y007427D03*
X033150Y005773D03*
D22*
X032950Y003095D03*
X032950Y002505D03*
X032950Y001895D03*
X032950Y001305D03*
X031045Y009000D03*
X030455Y009000D03*
X038455Y013100D03*
X039045Y013100D03*
X039045Y014100D03*
X038455Y014100D03*
X038455Y015100D03*
X039045Y015100D03*
D23*
X031250Y010235D03*
X031250Y009565D03*
D24*
X029750Y009000D03*
X029550Y007000D03*
X029550Y005900D03*
X032450Y008400D03*
X033550Y009900D03*
X033550Y010700D03*
X034650Y011200D03*
X035150Y012300D03*
X035750Y013900D03*
X035050Y014700D03*
X034150Y014300D03*
X033250Y014700D03*
X032550Y014400D03*
X031950Y014700D03*
X032550Y016100D03*
X033250Y016300D03*
X034150Y016700D03*
X034650Y016700D03*
X035050Y016300D03*
X035750Y016800D03*
X036450Y017400D03*
X035550Y017900D03*
X036250Y018200D03*
X034650Y017900D03*
X034050Y017900D03*
X033350Y018400D03*
X032950Y017900D03*
X032550Y017300D03*
X032050Y017900D03*
X032050Y018400D03*
X033660Y020390D03*
X033250Y021000D03*
X032950Y021600D03*
X032650Y022200D03*
X032250Y022800D03*
X031950Y023400D03*
X031650Y024000D03*
X034250Y023600D03*
X034350Y024400D03*
X034250Y022800D03*
X034250Y022100D03*
X034450Y020400D03*
X036020Y020100D03*
X036250Y020700D03*
X036350Y021300D03*
X036450Y022700D03*
X036150Y025800D03*
X038050Y016000D03*
X038550Y015700D03*
X039050Y014600D03*
X039050Y013600D03*
X039050Y012600D03*
X037850Y011700D03*
X037060Y010520D03*
X032950Y012200D03*
X031550Y011600D03*
X029750Y012900D03*
X029550Y014100D03*
X029750Y014900D03*
X029250Y015100D03*
X036450Y015400D03*
X036650Y005800D03*
X036650Y005000D03*
X035050Y003200D03*
X034450Y005100D03*
X032950Y000800D03*
D25*
X036450Y022700D02*
X036450Y024700D01*
X035950Y025200D01*
X035750Y025200D01*
D26*
X035150Y025600D02*
X035450Y025900D01*
X036050Y025900D01*
X036150Y025800D01*
X035150Y025600D02*
X035150Y023300D01*
X035750Y022700D01*
X035750Y022050D01*
X035950Y012400D02*
X035950Y011500D01*
X036650Y010800D01*
X036650Y009125D01*
X035750Y008225D01*
X033150Y005800D02*
X033050Y005700D01*
X033150Y005700D01*
X033150Y005773D01*
X031776Y004874D02*
X031776Y004700D01*
X031776Y004874D02*
X031200Y005450D01*
X031200Y005650D01*
X031050Y005800D01*
X029650Y005800D01*
X029550Y005900D01*
X036450Y012000D02*
X036450Y012400D01*
X036450Y012000D02*
X037475Y010975D01*
X037475Y004100D01*
X007615Y004100D02*
X002244Y004100D01*
X002372Y004078D01*
X002059Y004900D02*
X002372Y005062D01*
X002150Y005000D02*
X002050Y004900D01*
X002059Y004900D01*
X002150Y005000D02*
X005615Y005000D01*
X007615Y006000D02*
X002268Y006000D01*
X002372Y006046D01*
X002252Y007000D02*
X002372Y007031D01*
X002252Y007000D02*
X005615Y007000D01*
X007615Y008000D02*
X002237Y008000D01*
X002372Y008015D01*
X002372Y008999D02*
X002222Y009000D01*
X005615Y009000D01*
X007615Y010000D02*
X002238Y010000D01*
X002372Y009983D01*
X002289Y010900D02*
X002372Y010968D01*
X002289Y010900D02*
X005615Y010900D01*
X007615Y011900D02*
X002274Y011900D01*
X002372Y011952D01*
X002258Y012900D02*
X002372Y012936D01*
X002258Y012900D02*
X005615Y012900D01*
X007615Y013900D02*
X002242Y013900D01*
X002372Y013920D01*
X002372Y014905D02*
X002226Y014900D01*
X005615Y014900D01*
X005650Y014900D01*
X007615Y015900D02*
X002233Y015900D01*
X002372Y015889D01*
X002372Y016873D02*
X002248Y016900D01*
X005615Y016900D01*
X007615Y017900D02*
X002264Y017900D01*
X002372Y017857D01*
X002372Y018842D02*
X005574Y018842D01*
X005615Y018800D01*
X007615Y019800D02*
X002550Y019800D01*
X002450Y019900D01*
X002296Y019900D01*
X002372Y019826D01*
X002232Y020800D02*
X002372Y020810D01*
X002232Y020800D02*
X005615Y020800D01*
X007615Y021800D02*
X002227Y021800D01*
X002372Y021794D01*
X002372Y022779D02*
X002243Y022800D01*
X005615Y022800D01*
X007615Y023800D02*
X002259Y023800D01*
X002372Y023763D01*
X002269Y024700D02*
X002372Y024747D01*
X002269Y024700D02*
X005615Y024700D01*
X007615Y025700D02*
X002253Y025700D01*
X002372Y025731D01*
X002237Y026700D02*
X002372Y026716D01*
X002237Y026700D02*
X005615Y026700D01*
X007615Y027700D02*
X002372Y027700D01*
D27*
X026750Y013000D02*
X027050Y013300D01*
X029580Y013300D01*
X029580Y013162D01*
X029576Y013160D01*
X029490Y013074D01*
X029443Y012961D01*
X029443Y012839D01*
X029490Y012726D01*
X029576Y012640D01*
X029689Y012593D01*
X029811Y012593D01*
X029924Y012640D01*
X030010Y012726D01*
X030057Y012839D01*
X030057Y012961D01*
X030010Y013074D01*
X029924Y013160D01*
X029920Y013162D01*
X029920Y013300D01*
X030080Y013300D01*
X030080Y012570D01*
X029880Y012370D01*
X029280Y012370D01*
X028880Y011970D01*
X028760Y011970D01*
X028520Y012210D01*
X028180Y012210D01*
X027940Y011970D01*
X027940Y011630D01*
X028100Y011470D01*
X027820Y011470D01*
X027710Y011580D01*
X027760Y011630D01*
X027760Y011970D01*
X027520Y012210D01*
X027180Y012210D01*
X026940Y011970D01*
X026940Y011630D01*
X027180Y011390D01*
X027420Y011390D01*
X027580Y011230D01*
X027680Y011130D01*
X028100Y011130D01*
X027940Y010970D01*
X027940Y010630D01*
X028100Y010470D01*
X027920Y010470D01*
X027760Y010630D01*
X027760Y010970D01*
X027520Y011210D01*
X027180Y011210D01*
X026940Y010970D01*
X026940Y010630D01*
X027180Y010390D01*
X027520Y010390D01*
X027780Y010130D01*
X028100Y010130D01*
X027940Y009970D01*
X027940Y009630D01*
X028180Y009390D01*
X028520Y009390D01*
X028760Y009630D01*
X028760Y009970D01*
X028600Y010130D01*
X028820Y010130D01*
X028920Y010230D01*
X029194Y010504D01*
X029231Y010504D01*
X029231Y010432D01*
X029296Y010367D01*
X029938Y010367D01*
X030003Y010432D01*
X030003Y010916D01*
X029938Y010981D01*
X029296Y010981D01*
X029231Y010916D01*
X029231Y010844D01*
X029054Y010844D01*
X028680Y010470D01*
X028600Y010470D01*
X028760Y010630D01*
X028760Y010970D01*
X028600Y011130D01*
X029020Y011130D01*
X029420Y011530D01*
X029609Y011530D01*
X029609Y011438D01*
X029673Y011373D01*
X030158Y011373D01*
X030222Y011438D01*
X030222Y011962D01*
X030158Y012027D01*
X029673Y012027D01*
X029609Y011962D01*
X029609Y011870D01*
X029280Y011870D01*
X029180Y011770D01*
X028880Y011470D01*
X028600Y011470D01*
X028760Y011630D01*
X029020Y011630D01*
X029420Y012030D01*
X030020Y012030D01*
X030320Y012330D01*
X030320Y012330D01*
X030415Y012424D01*
X030415Y012027D01*
X030342Y012027D01*
X030278Y011962D01*
X030278Y011438D01*
X030342Y011373D01*
X030355Y011373D01*
X030293Y011312D01*
X030293Y010607D01*
X030162Y010607D01*
X030097Y010542D01*
X030097Y010058D01*
X030162Y009993D01*
X030804Y009993D01*
X030869Y010058D01*
X030869Y010542D01*
X030804Y010607D01*
X030673Y010607D01*
X030673Y011154D01*
X030740Y011221D01*
X030740Y011373D01*
X030827Y011373D01*
X030891Y011438D01*
X030891Y011962D01*
X030827Y012027D01*
X030755Y012027D01*
X030755Y013300D01*
X030860Y013300D01*
X030860Y013121D01*
X030971Y013010D01*
X031860Y012121D01*
X031860Y011227D01*
X031542Y011227D01*
X031478Y011162D01*
X031478Y010638D01*
X031542Y010573D01*
X032009Y010573D01*
X032009Y010470D01*
X031980Y010470D01*
X031880Y010370D01*
X031780Y010270D01*
X031780Y009807D01*
X031696Y009807D01*
X031631Y009742D01*
X031631Y009258D01*
X031696Y009193D01*
X032303Y009193D01*
X031580Y008470D01*
X028600Y008470D01*
X028760Y008630D01*
X028760Y008970D01*
X028520Y009210D01*
X028180Y009210D01*
X027940Y008970D01*
X027940Y008630D01*
X028100Y008470D01*
X027920Y008470D01*
X027760Y008630D01*
X027760Y008970D01*
X027520Y009210D01*
X027180Y009210D01*
X026940Y008970D01*
X026940Y008630D01*
X027180Y008390D01*
X027520Y008390D01*
X027780Y008130D01*
X028100Y008130D01*
X027940Y007970D01*
X027940Y007630D01*
X028180Y007390D01*
X028520Y007390D01*
X028760Y007630D01*
X028760Y007970D01*
X028600Y008130D01*
X031720Y008130D01*
X031820Y008230D01*
X032497Y008907D01*
X032497Y008884D01*
X032562Y008819D01*
X033204Y008819D01*
X033269Y008884D01*
X033269Y009368D01*
X033204Y009433D01*
X032562Y009433D01*
X032497Y009368D01*
X032497Y009296D01*
X032406Y009296D01*
X032403Y009293D01*
X032403Y009742D01*
X032338Y009807D01*
X032120Y009807D01*
X032120Y010130D01*
X032468Y010130D01*
X032468Y010129D01*
X032457Y010091D01*
X032457Y009922D01*
X032835Y009922D01*
X032835Y009826D01*
X032457Y009826D01*
X032457Y009657D01*
X032468Y009619D01*
X032487Y009585D01*
X032515Y009557D01*
X032550Y009537D01*
X032588Y009527D01*
X032835Y009527D01*
X032835Y009826D01*
X032931Y009826D01*
X032931Y009527D01*
X033178Y009527D01*
X033217Y009537D01*
X033251Y009557D01*
X033279Y009585D01*
X033298Y009619D01*
X033309Y009657D01*
X033309Y009826D01*
X032932Y009826D01*
X032932Y009922D01*
X033309Y009922D01*
X033309Y010091D01*
X033298Y010129D01*
X033279Y010163D01*
X033251Y010191D01*
X033217Y010211D01*
X033178Y010221D01*
X032931Y010221D01*
X032931Y009922D01*
X032835Y009922D01*
X032835Y010221D01*
X032811Y010221D01*
X032820Y010230D01*
X032964Y010373D01*
X033227Y010373D01*
X033291Y010438D01*
X033291Y010525D01*
X033376Y010440D01*
X033489Y010393D01*
X033611Y010393D01*
X033724Y010440D01*
X033810Y010526D01*
X033857Y010639D01*
X033857Y010761D01*
X033810Y010874D01*
X033724Y010960D01*
X033611Y011007D01*
X033489Y011007D01*
X033376Y010960D01*
X033291Y010875D01*
X033291Y010962D01*
X033227Y011027D01*
X032742Y011027D01*
X032678Y010962D01*
X032678Y010568D01*
X032622Y010513D01*
X032622Y010962D01*
X032558Y011027D01*
X032258Y011027D01*
X032240Y011044D01*
X032240Y012279D01*
X031788Y012730D01*
X032514Y012730D01*
X032524Y012720D01*
X032559Y012701D01*
X032597Y012690D01*
X032676Y012690D01*
X032754Y012690D01*
X032793Y012701D01*
X032827Y012720D01*
X032837Y012730D01*
X033440Y012730D01*
X033380Y012670D01*
X033254Y012544D01*
X033254Y011905D01*
X033123Y011905D01*
X033071Y011854D01*
X033052Y011887D01*
X033024Y011915D01*
X032990Y011935D01*
X032952Y011945D01*
X032726Y011945D01*
X032726Y011550D01*
X032626Y011550D01*
X032626Y011945D01*
X032400Y011945D01*
X032362Y011935D01*
X032328Y011915D01*
X032300Y011887D01*
X032280Y011853D01*
X032270Y011815D01*
X032270Y011550D01*
X032626Y011550D01*
X032626Y011450D01*
X032726Y011450D01*
X032726Y011055D01*
X032952Y011055D01*
X032990Y011065D01*
X033024Y011085D01*
X033052Y011113D01*
X033071Y011146D01*
X033123Y011095D01*
X033725Y011095D01*
X033790Y011159D01*
X033790Y011841D01*
X033725Y011905D01*
X033594Y011905D01*
X033594Y012404D01*
X033620Y012430D01*
X033820Y012430D01*
X033880Y012490D01*
X033880Y008470D01*
X033261Y007852D01*
X032750Y007852D01*
X032686Y007787D01*
X032686Y007066D01*
X032750Y007002D01*
X033550Y007002D01*
X033614Y007066D01*
X033614Y007724D01*
X034120Y008230D01*
X034120Y008230D01*
X034220Y008330D01*
X034220Y012376D01*
X034780Y011736D01*
X034780Y011730D01*
X034826Y011684D01*
X034868Y011635D01*
X034875Y011635D01*
X035180Y011330D01*
X035180Y010870D01*
X034780Y010470D01*
X034780Y004781D01*
X033789Y003970D01*
X028760Y003970D01*
X028520Y004210D01*
X028180Y004210D01*
X027940Y003970D01*
X027940Y003630D01*
X028180Y003390D01*
X028520Y003390D01*
X028760Y003630D01*
X033842Y003630D01*
X033903Y003624D01*
X033911Y003630D01*
X033920Y003630D01*
X033964Y003674D01*
X035011Y004530D01*
X035020Y004530D01*
X035064Y004574D01*
X035112Y004613D01*
X035113Y004623D01*
X035120Y004630D01*
X035120Y004692D01*
X035126Y004753D01*
X035120Y004761D01*
X035120Y010330D01*
X035420Y010630D01*
X035520Y010730D01*
X035520Y011470D01*
X035074Y011916D01*
X034420Y012664D01*
X034420Y012730D01*
X035467Y012730D01*
X035477Y012720D01*
X035511Y012701D01*
X035550Y012690D01*
X035628Y012690D01*
X035628Y013037D01*
X035628Y013037D01*
X035628Y012690D01*
X035707Y012690D01*
X035745Y012701D01*
X035779Y012720D01*
X035790Y012730D01*
X035852Y012730D01*
X035852Y012627D01*
X035720Y012495D01*
X035720Y011405D01*
X036420Y010705D01*
X036420Y009220D01*
X035869Y008670D01*
X035370Y008670D01*
X035305Y008605D01*
X035305Y007845D01*
X035370Y007781D01*
X036130Y007781D01*
X036195Y007845D01*
X036195Y008345D01*
X036880Y009030D01*
X036880Y010895D01*
X036745Y011030D01*
X036180Y011595D01*
X036180Y012390D01*
X036192Y012402D01*
X036192Y012730D01*
X036248Y012730D01*
X036250Y012582D01*
X036239Y012564D01*
X036248Y012523D01*
X036220Y012495D01*
X036220Y011905D01*
X036355Y011770D01*
X037245Y010880D01*
X037245Y004545D01*
X037095Y004545D01*
X037031Y004480D01*
X037031Y003720D01*
X037095Y003655D01*
X037855Y003655D01*
X037920Y003720D01*
X037920Y004480D01*
X037855Y004545D01*
X037705Y004545D01*
X037705Y011070D01*
X036680Y012095D01*
X036680Y012495D01*
X036590Y012586D01*
X036588Y012730D01*
X036717Y012730D01*
X036782Y012795D01*
X036782Y012966D01*
X036783Y012967D01*
X036783Y013708D01*
X036683Y013807D01*
X036520Y013970D01*
X036420Y014070D01*
X036012Y014070D01*
X036010Y014074D01*
X035974Y014110D01*
X036471Y014110D01*
X036671Y013910D01*
X036700Y013910D01*
X036856Y013753D01*
X036995Y013753D01*
X036995Y013622D01*
X037059Y013557D01*
X037493Y013557D01*
X039550Y011500D01*
X039550Y000700D01*
X039100Y000250D01*
X027100Y000250D01*
X026750Y000600D01*
X026750Y013000D01*
X026754Y013004D02*
X026974Y013004D01*
X026940Y012970D02*
X026940Y012630D01*
X027180Y012390D01*
X027520Y012390D01*
X027760Y012630D01*
X027760Y012970D01*
X027520Y013210D01*
X027180Y013210D01*
X026940Y012970D01*
X026940Y012905D02*
X026750Y012905D01*
X026750Y012807D02*
X026940Y012807D01*
X026940Y012708D02*
X026750Y012708D01*
X026750Y012610D02*
X026961Y012610D01*
X027059Y012511D02*
X026750Y012511D01*
X026750Y012413D02*
X027158Y012413D01*
X027087Y012117D02*
X026750Y012117D01*
X026750Y012019D02*
X026989Y012019D01*
X026940Y011920D02*
X026750Y011920D01*
X026750Y011822D02*
X026940Y011822D01*
X026940Y011723D02*
X026750Y011723D01*
X026750Y011625D02*
X026946Y011625D01*
X027044Y011526D02*
X026750Y011526D01*
X026750Y011428D02*
X027143Y011428D01*
X027102Y011132D02*
X026750Y011132D01*
X026750Y011034D02*
X027004Y011034D01*
X026940Y010935D02*
X026750Y010935D01*
X026750Y010837D02*
X026940Y010837D01*
X026940Y010738D02*
X026750Y010738D01*
X026750Y010640D02*
X026940Y010640D01*
X027029Y010541D02*
X026750Y010541D01*
X026750Y010443D02*
X027128Y010443D01*
X027164Y010250D02*
X026900Y009986D01*
X026900Y009850D01*
X027300Y009850D01*
X027300Y010250D01*
X027164Y010250D01*
X027159Y010246D02*
X026750Y010246D01*
X026750Y010344D02*
X027566Y010344D01*
X027536Y010250D02*
X027400Y010250D01*
X027400Y009850D01*
X027300Y009850D01*
X027300Y009750D01*
X026900Y009750D01*
X026900Y009614D01*
X027164Y009350D01*
X027300Y009350D01*
X027300Y009750D01*
X027400Y009750D01*
X027400Y009850D01*
X027800Y009850D01*
X027800Y009986D01*
X027536Y010250D01*
X027541Y010246D02*
X027664Y010246D01*
X027639Y010147D02*
X027763Y010147D01*
X027738Y010049D02*
X028019Y010049D01*
X027940Y009950D02*
X027800Y009950D01*
X027800Y009852D02*
X027940Y009852D01*
X027940Y009753D02*
X027400Y009753D01*
X027400Y009750D02*
X027800Y009750D01*
X027800Y009614D01*
X027536Y009350D01*
X027400Y009350D01*
X027400Y009750D01*
X027400Y009655D02*
X027300Y009655D01*
X027300Y009753D02*
X026750Y009753D01*
X026750Y009655D02*
X026900Y009655D01*
X026958Y009556D02*
X026750Y009556D01*
X026750Y009458D02*
X027056Y009458D01*
X027155Y009359D02*
X026750Y009359D01*
X026750Y009261D02*
X030188Y009261D01*
X030177Y009250D02*
X030157Y009215D01*
X030147Y009177D01*
X030147Y009029D01*
X030426Y009029D01*
X030426Y009307D01*
X030277Y009307D01*
X030239Y009297D01*
X030205Y009278D01*
X030177Y009250D01*
X030147Y009162D02*
X028568Y009162D01*
X028666Y009064D02*
X030147Y009064D01*
X030147Y008971D02*
X030147Y008823D01*
X030157Y008785D01*
X030177Y008750D01*
X030205Y008722D01*
X030239Y008703D01*
X030277Y008693D01*
X030426Y008693D01*
X030426Y008971D01*
X030483Y008971D01*
X030483Y008693D01*
X030632Y008693D01*
X030670Y008703D01*
X030704Y008722D01*
X030732Y008750D01*
X030752Y008785D01*
X030762Y008823D01*
X030762Y008971D01*
X030483Y008971D01*
X030483Y009029D01*
X030426Y009029D01*
X030426Y008971D01*
X030147Y008971D01*
X030147Y008965D02*
X028760Y008965D01*
X028760Y008867D02*
X030147Y008867D01*
X030167Y008768D02*
X028760Y008768D01*
X028760Y008670D02*
X031779Y008670D01*
X031878Y008768D02*
X031284Y008768D01*
X031313Y008797D02*
X031313Y008894D01*
X031329Y008910D01*
X031440Y009021D01*
X031440Y009259D01*
X031512Y009259D01*
X031577Y009323D01*
X031577Y009808D01*
X031512Y009872D01*
X030988Y009872D01*
X030923Y009808D01*
X030923Y009323D01*
X030979Y009267D01*
X030842Y009267D01*
X030778Y009203D01*
X030778Y008797D01*
X030842Y008733D01*
X031248Y008733D01*
X031313Y008797D01*
X031313Y008867D02*
X031976Y008867D01*
X032075Y008965D02*
X031384Y008965D01*
X031440Y009064D02*
X032173Y009064D01*
X032272Y009162D02*
X031440Y009162D01*
X031514Y009261D02*
X031631Y009261D01*
X031631Y009359D02*
X031577Y009359D01*
X031577Y009458D02*
X031631Y009458D01*
X031631Y009556D02*
X031577Y009556D01*
X031577Y009655D02*
X031631Y009655D01*
X031642Y009753D02*
X031577Y009753D01*
X031533Y009852D02*
X031780Y009852D01*
X031780Y009950D02*
X031534Y009950D01*
X031512Y009928D02*
X031577Y009992D01*
X031577Y010477D01*
X031512Y010541D01*
X031440Y010541D01*
X031440Y010579D01*
X031401Y010617D01*
X031422Y010638D01*
X031422Y011162D01*
X031401Y011183D01*
X031512Y011293D01*
X031611Y011293D01*
X031724Y011340D01*
X031810Y011426D01*
X031857Y011539D01*
X031857Y011661D01*
X031810Y011774D01*
X031724Y011860D01*
X031611Y011907D01*
X031489Y011907D01*
X031376Y011860D01*
X031290Y011774D01*
X031243Y011661D01*
X031243Y011562D01*
X030925Y011244D01*
X030925Y011227D01*
X030873Y011227D01*
X030809Y011162D01*
X030809Y010638D01*
X030873Y010573D01*
X030925Y010573D01*
X030925Y010556D01*
X030964Y010517D01*
X030923Y010477D01*
X030923Y009992D01*
X030988Y009928D01*
X031512Y009928D01*
X031577Y010049D02*
X031780Y010049D01*
X031780Y010147D02*
X031577Y010147D01*
X031577Y010246D02*
X031780Y010246D01*
X031854Y010344D02*
X031577Y010344D01*
X031577Y010443D02*
X031952Y010443D01*
X032009Y010541D02*
X031513Y010541D01*
X031478Y010640D02*
X031422Y010640D01*
X031422Y010738D02*
X031478Y010738D01*
X031478Y010837D02*
X031422Y010837D01*
X031422Y010935D02*
X031478Y010935D01*
X031478Y011034D02*
X031422Y011034D01*
X031422Y011132D02*
X031478Y011132D01*
X031449Y011231D02*
X031860Y011231D01*
X031860Y011329D02*
X031698Y011329D01*
X031811Y011428D02*
X031860Y011428D01*
X031851Y011526D02*
X031860Y011526D01*
X031857Y011625D02*
X031860Y011625D01*
X031860Y011723D02*
X031831Y011723D01*
X031860Y011822D02*
X031762Y011822D01*
X031860Y011920D02*
X030891Y011920D01*
X030891Y011822D02*
X031338Y011822D01*
X031269Y011723D02*
X030891Y011723D01*
X030891Y011625D02*
X031243Y011625D01*
X031207Y011526D02*
X030891Y011526D01*
X030881Y011428D02*
X031109Y011428D01*
X031010Y011329D02*
X030740Y011329D01*
X030740Y011231D02*
X030925Y011231D01*
X030809Y011132D02*
X030673Y011132D01*
X030673Y011034D02*
X030809Y011034D01*
X030809Y010935D02*
X030673Y010935D01*
X030673Y010837D02*
X030809Y010837D01*
X030809Y010738D02*
X030673Y010738D01*
X030673Y010640D02*
X030809Y010640D01*
X030869Y010541D02*
X030940Y010541D01*
X030923Y010443D02*
X030869Y010443D01*
X030869Y010344D02*
X030923Y010344D01*
X030923Y010246D02*
X030869Y010246D01*
X030869Y010147D02*
X030923Y010147D01*
X030923Y010049D02*
X030860Y010049D01*
X030966Y009950D02*
X029665Y009950D01*
X029665Y009974D02*
X030043Y009974D01*
X030043Y010143D01*
X030032Y010181D01*
X030013Y010215D01*
X029985Y010243D01*
X029950Y010263D01*
X029912Y010273D01*
X029665Y010273D01*
X029665Y009974D01*
X029569Y009974D01*
X029568Y009974D02*
X029568Y009878D01*
X029191Y009878D01*
X029191Y009709D01*
X029202Y009671D01*
X029221Y009637D01*
X029249Y009609D01*
X029283Y009589D01*
X029322Y009579D01*
X029569Y009579D01*
X029569Y009878D01*
X029665Y009878D01*
X029665Y009579D01*
X029912Y009579D01*
X029950Y009589D01*
X029985Y009609D01*
X030013Y009637D01*
X030032Y009671D01*
X030043Y009709D01*
X030043Y009878D01*
X029665Y009878D01*
X029665Y009974D01*
X029665Y010049D02*
X029569Y010049D01*
X029569Y009974D02*
X029569Y010273D01*
X029322Y010273D01*
X029283Y010263D01*
X029249Y010243D01*
X029221Y010215D01*
X029202Y010181D01*
X029191Y010143D01*
X029191Y009974D01*
X029568Y009974D01*
X029568Y009950D02*
X028760Y009950D01*
X028760Y009852D02*
X029191Y009852D01*
X029191Y009753D02*
X028760Y009753D01*
X028760Y009655D02*
X029211Y009655D01*
X029569Y009655D02*
X029665Y009655D01*
X029665Y009753D02*
X029569Y009753D01*
X029569Y009852D02*
X029665Y009852D01*
X029665Y010147D02*
X029569Y010147D01*
X029569Y010246D02*
X029665Y010246D01*
X029980Y010246D02*
X030097Y010246D01*
X030097Y010344D02*
X029034Y010344D01*
X028936Y010246D02*
X029254Y010246D01*
X029193Y010147D02*
X028837Y010147D01*
X028681Y010049D02*
X029191Y010049D01*
X029231Y010443D02*
X029133Y010443D01*
X028849Y010640D02*
X028760Y010640D01*
X028760Y010738D02*
X028948Y010738D01*
X029046Y010837D02*
X028760Y010837D01*
X028760Y010935D02*
X029250Y010935D01*
X029022Y011132D02*
X030293Y011132D01*
X030293Y011034D02*
X028696Y011034D01*
X029121Y011231D02*
X030293Y011231D01*
X030310Y011329D02*
X029219Y011329D01*
X029318Y011428D02*
X029619Y011428D01*
X029609Y011526D02*
X029416Y011526D01*
X029133Y011723D02*
X029113Y011723D01*
X029034Y011625D02*
X028754Y011625D01*
X028656Y011526D02*
X028936Y011526D01*
X029212Y011822D02*
X029231Y011822D01*
X029310Y011920D02*
X029609Y011920D01*
X029665Y012019D02*
X029409Y012019D01*
X029125Y012216D02*
X026750Y012216D01*
X026750Y012314D02*
X029224Y012314D01*
X029027Y012117D02*
X028613Y012117D01*
X028711Y012019D02*
X028928Y012019D01*
X028536Y012350D02*
X028800Y012614D01*
X028800Y012750D01*
X028400Y012750D01*
X028400Y012850D01*
X028300Y012850D01*
X028300Y013250D01*
X028164Y013250D01*
X027900Y012986D01*
X027900Y012850D01*
X028300Y012850D01*
X028300Y012750D01*
X027900Y012750D01*
X027900Y012614D01*
X028164Y012350D01*
X028300Y012350D01*
X028300Y012750D01*
X028400Y012750D01*
X028400Y012350D01*
X028536Y012350D01*
X028599Y012413D02*
X029922Y012413D01*
X030021Y012511D02*
X028697Y012511D01*
X028796Y012610D02*
X029649Y012610D01*
X029508Y012708D02*
X028800Y012708D01*
X028800Y012850D02*
X028800Y012986D01*
X028536Y013250D01*
X028400Y013250D01*
X028400Y012850D01*
X028800Y012850D01*
X028800Y012905D02*
X029443Y012905D01*
X029457Y012807D02*
X028400Y012807D01*
X028400Y012905D02*
X028300Y012905D01*
X028300Y012807D02*
X027760Y012807D01*
X027760Y012905D02*
X027900Y012905D01*
X027917Y013004D02*
X027726Y013004D01*
X027628Y013102D02*
X028016Y013102D01*
X028114Y013201D02*
X027529Y013201D01*
X027171Y013201D02*
X026951Y013201D01*
X027049Y013299D02*
X029580Y013299D01*
X029580Y013201D02*
X028586Y013201D01*
X028684Y013102D02*
X029518Y013102D01*
X029461Y013004D02*
X028783Y013004D01*
X028400Y013004D02*
X028300Y013004D01*
X028300Y013102D02*
X028400Y013102D01*
X028400Y013201D02*
X028300Y013201D01*
X028300Y012708D02*
X028400Y012708D01*
X028400Y012610D02*
X028300Y012610D01*
X028300Y012511D02*
X028400Y012511D01*
X028400Y012413D02*
X028300Y012413D01*
X028101Y012413D02*
X027542Y012413D01*
X027641Y012511D02*
X028003Y012511D01*
X027904Y012610D02*
X027739Y012610D01*
X027760Y012708D02*
X027900Y012708D01*
X028087Y012117D02*
X027613Y012117D01*
X027711Y012019D02*
X027989Y012019D01*
X027940Y011920D02*
X027760Y011920D01*
X027760Y011822D02*
X027940Y011822D01*
X027940Y011723D02*
X027760Y011723D01*
X027754Y011625D02*
X027946Y011625D01*
X028044Y011526D02*
X027764Y011526D01*
X027481Y011329D02*
X026750Y011329D01*
X026750Y011231D02*
X027579Y011231D01*
X027598Y011132D02*
X027678Y011132D01*
X027696Y011034D02*
X028004Y011034D01*
X027940Y010935D02*
X027760Y010935D01*
X027760Y010837D02*
X027940Y010837D01*
X027940Y010738D02*
X027760Y010738D01*
X027760Y010640D02*
X027940Y010640D01*
X028029Y010541D02*
X027849Y010541D01*
X027400Y010246D02*
X027300Y010246D01*
X027300Y010147D02*
X027400Y010147D01*
X027400Y010049D02*
X027300Y010049D01*
X027300Y009950D02*
X027400Y009950D01*
X027400Y009852D02*
X027300Y009852D01*
X027300Y009556D02*
X027400Y009556D01*
X027400Y009458D02*
X027300Y009458D01*
X027300Y009359D02*
X027400Y009359D01*
X027545Y009359D02*
X030923Y009359D01*
X030923Y009458D02*
X028587Y009458D01*
X028686Y009556D02*
X030923Y009556D01*
X030923Y009655D02*
X030023Y009655D01*
X030043Y009753D02*
X030923Y009753D01*
X030967Y009852D02*
X030043Y009852D01*
X030043Y010049D02*
X030107Y010049D01*
X030097Y010147D02*
X030041Y010147D01*
X030003Y010443D02*
X030097Y010443D01*
X030097Y010541D02*
X030003Y010541D01*
X030003Y010640D02*
X030293Y010640D01*
X030293Y010738D02*
X030003Y010738D01*
X030003Y010837D02*
X030293Y010837D01*
X030293Y010935D02*
X029984Y010935D01*
X030212Y011428D02*
X030288Y011428D01*
X030278Y011526D02*
X030222Y011526D01*
X030222Y011625D02*
X030278Y011625D01*
X030278Y011723D02*
X030222Y011723D01*
X030222Y011822D02*
X030278Y011822D01*
X030278Y011920D02*
X030222Y011920D01*
X030166Y012019D02*
X030334Y012019D01*
X030415Y012117D02*
X030107Y012117D01*
X030206Y012216D02*
X030415Y012216D01*
X030415Y012314D02*
X030304Y012314D01*
X030403Y012413D02*
X030415Y012413D01*
X030755Y012413D02*
X031569Y012413D01*
X031470Y012511D02*
X030755Y012511D01*
X030755Y012610D02*
X031372Y012610D01*
X031273Y012708D02*
X030755Y012708D01*
X030755Y012807D02*
X031175Y012807D01*
X031076Y012905D02*
X030755Y012905D01*
X030755Y013004D02*
X030978Y013004D01*
X030879Y013102D02*
X030755Y013102D01*
X030755Y013201D02*
X030860Y013201D01*
X030860Y013299D02*
X030755Y013299D01*
X031240Y013299D02*
X031738Y013299D01*
X031719Y013280D02*
X031719Y012800D01*
X031240Y013279D01*
X031240Y013527D01*
X031270Y013556D01*
X032206Y013556D01*
X032347Y013556D01*
X032550Y013760D01*
X032780Y013530D01*
X033100Y013530D01*
X033100Y013344D01*
X032837Y013344D01*
X032827Y013354D01*
X032793Y013374D01*
X032754Y013384D01*
X032676Y013384D01*
X032676Y013037D01*
X032676Y012690D01*
X032676Y013037D01*
X032676Y013037D01*
X032676Y013037D01*
X032676Y013384D01*
X032597Y013384D01*
X032559Y013374D01*
X032524Y013354D01*
X032514Y013344D01*
X031784Y013344D01*
X031719Y013280D01*
X031719Y013201D02*
X031318Y013201D01*
X031417Y013102D02*
X031719Y013102D01*
X031719Y013004D02*
X031515Y013004D01*
X031614Y012905D02*
X031719Y012905D01*
X031712Y012807D02*
X031719Y012807D01*
X031811Y012708D02*
X032546Y012708D01*
X032676Y012708D02*
X032676Y012708D01*
X032676Y012807D02*
X032676Y012807D01*
X032676Y012905D02*
X032676Y012905D01*
X032676Y013004D02*
X032676Y013004D01*
X032676Y013102D02*
X032676Y013102D01*
X032676Y013201D02*
X032676Y013201D01*
X032676Y013299D02*
X032676Y013299D01*
X032715Y013595D02*
X032385Y013595D01*
X032483Y013693D02*
X032617Y013693D01*
X032900Y013890D02*
X033680Y013890D01*
X033680Y013792D02*
X033419Y013792D01*
X033440Y013770D02*
X033340Y013870D01*
X032920Y013870D01*
X032720Y014070D01*
X032720Y014138D01*
X032724Y014140D01*
X032810Y014226D01*
X032857Y014339D01*
X032857Y014461D01*
X032810Y014574D01*
X032724Y014660D01*
X032611Y014707D01*
X032489Y014707D01*
X032376Y014660D01*
X032290Y014574D01*
X032243Y014461D01*
X032243Y014339D01*
X032290Y014226D01*
X032376Y014140D01*
X032380Y014138D01*
X032380Y014070D01*
X032206Y013896D01*
X031506Y013896D01*
X031506Y014156D01*
X031516Y014166D01*
X031536Y014200D01*
X031546Y014238D01*
X031546Y014317D01*
X031546Y014396D01*
X031536Y014434D01*
X031516Y014468D01*
X031506Y014478D01*
X031506Y015730D01*
X031516Y015740D01*
X031536Y015775D01*
X031546Y015813D01*
X031546Y015892D01*
X031546Y015918D01*
X032298Y015918D01*
X032376Y015840D01*
X032489Y015793D01*
X032611Y015793D01*
X032724Y015840D01*
X032810Y015926D01*
X032857Y016039D01*
X032857Y016161D01*
X032810Y016274D01*
X032724Y016360D01*
X032611Y016407D01*
X032489Y016407D01*
X032376Y016360D01*
X032290Y016274D01*
X032284Y016258D01*
X031506Y016258D01*
X031506Y016510D01*
X031966Y016510D01*
X031995Y016485D01*
X032152Y016496D01*
X032337Y016710D01*
X033171Y016710D01*
X033371Y016510D01*
X033906Y016510D01*
X033976Y016440D01*
X034089Y016393D01*
X034211Y016393D01*
X034324Y016440D01*
X034400Y016516D01*
X034476Y016440D01*
X034589Y016393D01*
X034711Y016393D01*
X034824Y016440D01*
X034910Y016526D01*
X034957Y016639D01*
X034957Y016761D01*
X034910Y016874D01*
X034840Y016944D01*
X034840Y017121D01*
X035129Y017410D01*
X035240Y017521D01*
X035240Y018279D01*
X034820Y018699D01*
X034820Y018833D01*
X035458Y018833D01*
X035458Y018194D01*
X035376Y018160D01*
X035290Y018074D01*
X035243Y017961D01*
X035243Y017839D01*
X035290Y017726D01*
X035376Y017640D01*
X035489Y017593D01*
X035611Y017593D01*
X035724Y017640D01*
X035810Y017726D01*
X035857Y017839D01*
X035857Y017961D01*
X035810Y018074D01*
X035798Y018086D01*
X035798Y018793D01*
X035825Y018793D01*
X035825Y019140D01*
X035825Y019140D01*
X035825Y018793D01*
X035904Y018793D01*
X035942Y018803D01*
X035976Y018823D01*
X035986Y018833D01*
X036717Y018833D01*
X036782Y018897D01*
X036782Y019025D01*
X036884Y019066D01*
X036980Y018970D01*
X036980Y018532D01*
X036995Y018517D01*
X036995Y018218D01*
X036985Y018208D01*
X036965Y018174D01*
X036955Y018136D01*
X036955Y018057D01*
X037302Y018057D01*
X037302Y018057D01*
X036955Y018057D01*
X036955Y017978D01*
X036965Y017940D01*
X036985Y017906D01*
X036995Y017896D01*
X036995Y017046D01*
X035938Y017046D01*
X035924Y017060D01*
X035811Y017107D01*
X035689Y017107D01*
X035576Y017060D01*
X035490Y016974D01*
X035443Y016861D01*
X035443Y016739D01*
X035490Y016626D01*
X035576Y016540D01*
X035689Y016493D01*
X035811Y016493D01*
X035924Y016540D01*
X036010Y016626D01*
X036043Y016706D01*
X036995Y016706D01*
X036995Y015462D01*
X036985Y015452D01*
X036965Y015418D01*
X036955Y015380D01*
X036955Y015301D01*
X036955Y015222D01*
X036965Y015184D01*
X036985Y015150D01*
X036995Y015140D01*
X036995Y014096D01*
X036940Y014150D01*
X036940Y014179D01*
X036629Y014490D01*
X034394Y014490D01*
X034324Y014560D01*
X034211Y014607D01*
X034089Y014607D01*
X033976Y014560D01*
X033890Y014474D01*
X033843Y014361D01*
X033843Y014334D01*
X033780Y014270D01*
X033780Y014270D01*
X033680Y014170D01*
X033680Y013344D01*
X033440Y013344D01*
X033440Y013770D01*
X033440Y013693D02*
X033680Y013693D01*
X033680Y013595D02*
X033440Y013595D01*
X033440Y013496D02*
X033680Y013496D01*
X033680Y013398D02*
X033440Y013398D01*
X033100Y013398D02*
X031240Y013398D01*
X031240Y013496D02*
X033100Y013496D01*
X032802Y013989D02*
X033680Y013989D01*
X033680Y014087D02*
X032720Y014087D01*
X032769Y014186D02*
X033695Y014186D01*
X033794Y014284D02*
X032834Y014284D01*
X032857Y014383D02*
X033852Y014383D01*
X033897Y014481D02*
X032849Y014481D01*
X032804Y014580D02*
X034023Y014580D01*
X034277Y014580D02*
X036995Y014580D01*
X036995Y014678D02*
X032681Y014678D01*
X032419Y014678D02*
X031506Y014678D01*
X031506Y014580D02*
X032296Y014580D01*
X032251Y014481D02*
X031506Y014481D01*
X031546Y014383D02*
X032243Y014383D01*
X032266Y014284D02*
X031546Y014284D01*
X031546Y014317D02*
X031199Y014317D01*
X031546Y014317D01*
X031528Y014186D02*
X032331Y014186D01*
X032380Y014087D02*
X031506Y014087D01*
X031506Y013989D02*
X032298Y013989D01*
X031506Y014777D02*
X036995Y014777D01*
X036995Y014875D02*
X031506Y014875D01*
X031506Y014974D02*
X036995Y014974D01*
X036995Y015072D02*
X031506Y015072D01*
X031506Y015171D02*
X036973Y015171D01*
X036955Y015269D02*
X031506Y015269D01*
X031506Y015368D02*
X036955Y015368D01*
X036955Y015301D02*
X037302Y015301D01*
X036955Y015301D01*
X036995Y015466D02*
X031506Y015466D01*
X031506Y015565D02*
X036995Y015565D01*
X036995Y015663D02*
X031506Y015663D01*
X031528Y015762D02*
X036995Y015762D01*
X036995Y015860D02*
X032744Y015860D01*
X032824Y015959D02*
X036995Y015959D01*
X036995Y016057D02*
X032857Y016057D01*
X032857Y016156D02*
X036995Y016156D01*
X036995Y016254D02*
X032818Y016254D01*
X032731Y016353D02*
X036995Y016353D01*
X036995Y016451D02*
X034835Y016451D01*
X034920Y016550D02*
X035567Y016550D01*
X035481Y016648D02*
X034957Y016648D01*
X034957Y016747D02*
X035443Y016747D01*
X035443Y016845D02*
X034922Y016845D01*
X034840Y016944D02*
X035477Y016944D01*
X035558Y017042D02*
X034840Y017042D01*
X034859Y017141D02*
X036995Y017141D01*
X036995Y017239D02*
X034958Y017239D01*
X035056Y017338D02*
X036995Y017338D01*
X036995Y017436D02*
X035155Y017436D01*
X035240Y017535D02*
X036995Y017535D01*
X036995Y017633D02*
X035707Y017633D01*
X035812Y017732D02*
X036995Y017732D01*
X036995Y017830D02*
X035853Y017830D01*
X035857Y017929D02*
X036972Y017929D01*
X036955Y018027D02*
X035830Y018027D01*
X035798Y018126D02*
X036955Y018126D01*
X036995Y018224D02*
X035798Y018224D01*
X035798Y018323D02*
X036995Y018323D01*
X036995Y018421D02*
X035798Y018421D01*
X035798Y018520D02*
X036992Y018520D01*
X036980Y018618D02*
X035798Y018618D01*
X035798Y018717D02*
X036980Y018717D01*
X036980Y018815D02*
X035963Y018815D01*
X035825Y018815D02*
X035825Y018815D01*
X035825Y018914D02*
X035825Y018914D01*
X035825Y019012D02*
X035825Y019012D01*
X035825Y019111D02*
X035825Y019111D01*
X035458Y018815D02*
X034820Y018815D01*
X034820Y018717D02*
X035458Y018717D01*
X035458Y018618D02*
X034901Y018618D01*
X034999Y018520D02*
X035458Y018520D01*
X035458Y018421D02*
X035098Y018421D01*
X035196Y018323D02*
X035458Y018323D01*
X035458Y018224D02*
X035240Y018224D01*
X035240Y018126D02*
X035342Y018126D01*
X035270Y018027D02*
X035240Y018027D01*
X035240Y017929D02*
X035243Y017929D01*
X035240Y017830D02*
X035247Y017830D01*
X035240Y017732D02*
X035288Y017732D01*
X035240Y017633D02*
X035393Y017633D01*
X034819Y017638D02*
X034460Y017279D01*
X034460Y017121D01*
X034460Y016944D01*
X034400Y016884D01*
X034324Y016960D01*
X034211Y017007D01*
X034089Y017007D01*
X033976Y016960D01*
X033906Y016890D01*
X033529Y016890D01*
X033440Y016979D01*
X033329Y017090D01*
X032774Y017090D01*
X032810Y017126D01*
X032857Y017239D01*
X032857Y017361D01*
X032810Y017474D01*
X032724Y017560D01*
X032611Y017607D01*
X032489Y017607D01*
X032485Y017605D01*
X032454Y017636D01*
X031506Y017636D01*
X031506Y018555D01*
X031442Y018620D01*
X031320Y018620D01*
X031320Y018670D01*
X031719Y019069D01*
X031719Y018897D01*
X031784Y018833D01*
X032121Y018833D01*
X032131Y018823D01*
X032165Y018803D01*
X032203Y018793D01*
X032282Y018793D01*
X032309Y018793D01*
X032309Y018301D01*
X032645Y017965D01*
X032643Y017961D01*
X032643Y017839D01*
X032690Y017726D01*
X032776Y017640D01*
X032889Y017593D01*
X033011Y017593D01*
X033124Y017640D01*
X033210Y017726D01*
X033257Y017839D01*
X033257Y017961D01*
X033210Y018074D01*
X033124Y018160D01*
X033011Y018207D01*
X032889Y018207D01*
X032885Y018205D01*
X032649Y018442D01*
X032649Y018833D01*
X033302Y018833D01*
X033312Y018823D01*
X033346Y018803D01*
X033384Y018793D01*
X033463Y018793D01*
X033542Y018793D01*
X033580Y018803D01*
X033614Y018823D01*
X033624Y018833D01*
X033884Y018833D01*
X033884Y018163D01*
X033876Y018160D01*
X033790Y018074D01*
X033743Y017961D01*
X033743Y017839D01*
X033790Y017726D01*
X033876Y017640D01*
X033989Y017593D01*
X034111Y017593D01*
X034224Y017640D01*
X034310Y017726D01*
X034350Y017822D01*
X034390Y017726D01*
X034476Y017640D01*
X034589Y017593D01*
X034711Y017593D01*
X034819Y017638D01*
X034814Y017633D02*
X034807Y017633D01*
X034716Y017535D02*
X032749Y017535D01*
X032793Y017633D02*
X032457Y017633D01*
X032688Y017732D02*
X031506Y017732D01*
X031506Y017830D02*
X032647Y017830D01*
X032643Y017929D02*
X031506Y017929D01*
X031506Y018027D02*
X032583Y018027D01*
X032484Y018126D02*
X031506Y018126D01*
X031506Y018224D02*
X032386Y018224D01*
X032309Y018323D02*
X031506Y018323D01*
X031506Y018421D02*
X032309Y018421D01*
X032309Y018520D02*
X031506Y018520D01*
X031443Y018618D02*
X032309Y018618D01*
X032309Y018717D02*
X031367Y018717D01*
X031465Y018815D02*
X032144Y018815D01*
X032282Y018815D02*
X032282Y018815D01*
X032282Y018793D02*
X032282Y019140D01*
X032282Y018793D01*
X032282Y018914D02*
X032282Y018914D01*
X032282Y019012D02*
X032282Y019012D01*
X032282Y019111D02*
X032282Y019111D01*
X032282Y019140D02*
X032282Y019140D01*
X032649Y018815D02*
X033325Y018815D01*
X033463Y018815D02*
X033463Y018815D01*
X033463Y018793D02*
X033463Y019140D01*
X033463Y018793D01*
X033463Y018914D02*
X033463Y018914D01*
X033463Y019012D02*
X033463Y019012D01*
X033463Y019111D02*
X033463Y019111D01*
X033463Y019140D02*
X033463Y019140D01*
X033601Y018815D02*
X033884Y018815D01*
X033884Y018717D02*
X032649Y018717D01*
X032649Y018618D02*
X033884Y018618D01*
X033884Y018520D02*
X032649Y018520D01*
X032669Y018421D02*
X033884Y018421D01*
X033884Y018323D02*
X032768Y018323D01*
X032866Y018224D02*
X033884Y018224D01*
X033842Y018126D02*
X033158Y018126D01*
X033230Y018027D02*
X033770Y018027D01*
X033743Y017929D02*
X033257Y017929D01*
X033253Y017830D02*
X033747Y017830D01*
X033788Y017732D02*
X033212Y017732D01*
X033107Y017633D02*
X033893Y017633D01*
X034207Y017633D02*
X034493Y017633D01*
X034388Y017732D02*
X034312Y017732D01*
X034617Y017436D02*
X032826Y017436D01*
X032857Y017338D02*
X034519Y017338D01*
X034460Y017239D02*
X032857Y017239D01*
X032816Y017141D02*
X034460Y017141D01*
X034460Y017042D02*
X033377Y017042D01*
X033475Y016944D02*
X033960Y016944D01*
X034340Y016944D02*
X034460Y016944D01*
X034465Y016451D02*
X034335Y016451D01*
X033965Y016451D02*
X031506Y016451D01*
X031506Y016353D02*
X032369Y016353D01*
X032198Y016550D02*
X033332Y016550D01*
X033233Y016648D02*
X032283Y016648D01*
X031956Y016850D02*
X031506Y016850D01*
X031506Y016980D01*
X031506Y017108D01*
X031516Y017118D01*
X031536Y017153D01*
X031546Y017191D01*
X031546Y017270D01*
X031546Y017296D01*
X032243Y017296D01*
X032243Y017239D01*
X032290Y017126D01*
X032326Y017090D01*
X032321Y017090D01*
X032315Y017095D01*
X032243Y017090D01*
X032171Y017090D01*
X032166Y017084D01*
X032158Y017084D01*
X032111Y017029D01*
X032060Y016979D01*
X032060Y016971D01*
X031956Y016850D01*
X032037Y016944D02*
X031506Y016944D01*
X031506Y017042D02*
X032122Y017042D01*
X032284Y017141D02*
X031529Y017141D01*
X031546Y017239D02*
X032243Y017239D01*
X031546Y017270D02*
X031199Y017270D01*
X031199Y017270D01*
X031546Y017270D01*
X031546Y015892D02*
X031199Y015892D01*
X031199Y015892D01*
X031546Y015892D01*
X031546Y015860D02*
X032356Y015860D01*
X031199Y014317D02*
X031199Y014317D01*
X030080Y013299D02*
X029920Y013299D01*
X029920Y013201D02*
X030080Y013201D01*
X030080Y013102D02*
X029982Y013102D01*
X030039Y013004D02*
X030080Y013004D01*
X030080Y012905D02*
X030057Y012905D01*
X030043Y012807D02*
X030080Y012807D01*
X030080Y012708D02*
X029992Y012708D01*
X030080Y012610D02*
X029851Y012610D01*
X030755Y012314D02*
X031667Y012314D01*
X031766Y012216D02*
X030755Y012216D01*
X030755Y012117D02*
X031860Y012117D01*
X031860Y012019D02*
X030835Y012019D01*
X031909Y012610D02*
X033319Y012610D01*
X033254Y012511D02*
X032008Y012511D01*
X032106Y012413D02*
X033254Y012413D01*
X033254Y012314D02*
X032205Y012314D01*
X032240Y012216D02*
X033254Y012216D01*
X033254Y012117D02*
X032240Y012117D01*
X032240Y012019D02*
X033254Y012019D01*
X033254Y011920D02*
X033016Y011920D01*
X032726Y011920D02*
X032626Y011920D01*
X032626Y011822D02*
X032726Y011822D01*
X032726Y011723D02*
X032626Y011723D01*
X032626Y011625D02*
X032726Y011625D01*
X032626Y011526D02*
X032240Y011526D01*
X032270Y011450D02*
X032270Y011185D01*
X032280Y011147D01*
X032300Y011113D01*
X032328Y011085D01*
X032362Y011065D01*
X032400Y011055D01*
X032626Y011055D01*
X032626Y011450D01*
X032270Y011450D01*
X032270Y011428D02*
X032240Y011428D01*
X032240Y011329D02*
X032270Y011329D01*
X032270Y011231D02*
X032240Y011231D01*
X032240Y011132D02*
X032289Y011132D01*
X032251Y011034D02*
X033880Y011034D01*
X033880Y011132D02*
X033763Y011132D01*
X033790Y011231D02*
X033880Y011231D01*
X033880Y011329D02*
X033790Y011329D01*
X033790Y011428D02*
X033880Y011428D01*
X033880Y011526D02*
X033790Y011526D01*
X033790Y011625D02*
X033880Y011625D01*
X033880Y011723D02*
X033790Y011723D01*
X033790Y011822D02*
X033880Y011822D01*
X033880Y011920D02*
X033594Y011920D01*
X033594Y012019D02*
X033880Y012019D01*
X033880Y012117D02*
X033594Y012117D01*
X033594Y012216D02*
X033880Y012216D01*
X033880Y012314D02*
X033594Y012314D01*
X033603Y012413D02*
X033880Y012413D01*
X034220Y012314D02*
X034274Y012314D01*
X034220Y012216D02*
X034361Y012216D01*
X034447Y012117D02*
X034220Y012117D01*
X034220Y012019D02*
X034533Y012019D01*
X034619Y011920D02*
X034220Y011920D01*
X034220Y011822D02*
X034705Y011822D01*
X034787Y011723D02*
X034220Y011723D01*
X034220Y011625D02*
X034885Y011625D01*
X034984Y011526D02*
X034220Y011526D01*
X034220Y011428D02*
X035082Y011428D01*
X035180Y011329D02*
X034220Y011329D01*
X034220Y011231D02*
X035180Y011231D01*
X035180Y011132D02*
X034220Y011132D01*
X034220Y011034D02*
X035180Y011034D01*
X035180Y010935D02*
X034220Y010935D01*
X034220Y010837D02*
X035146Y010837D01*
X035048Y010738D02*
X034220Y010738D01*
X034220Y010640D02*
X034949Y010640D01*
X034851Y010541D02*
X034220Y010541D01*
X034220Y010443D02*
X034780Y010443D01*
X034780Y010344D02*
X034220Y010344D01*
X034220Y010246D02*
X034780Y010246D01*
X034780Y010147D02*
X034220Y010147D01*
X034220Y010049D02*
X034780Y010049D01*
X034780Y009950D02*
X034220Y009950D01*
X034220Y009852D02*
X034780Y009852D01*
X034780Y009753D02*
X034220Y009753D01*
X034220Y009655D02*
X034780Y009655D01*
X034780Y009556D02*
X034220Y009556D01*
X034220Y009458D02*
X034780Y009458D01*
X034780Y009359D02*
X034220Y009359D01*
X034220Y009261D02*
X034780Y009261D01*
X034780Y009162D02*
X034220Y009162D01*
X034220Y009064D02*
X034780Y009064D01*
X034780Y008965D02*
X034220Y008965D01*
X034220Y008867D02*
X034780Y008867D01*
X034780Y008768D02*
X034220Y008768D01*
X034220Y008670D02*
X034780Y008670D01*
X034780Y008571D02*
X034220Y008571D01*
X034220Y008473D02*
X034780Y008473D01*
X034780Y008374D02*
X034220Y008374D01*
X034166Y008276D02*
X034780Y008276D01*
X034780Y008177D02*
X034067Y008177D01*
X033969Y008079D02*
X034780Y008079D01*
X034780Y007980D02*
X033870Y007980D01*
X033772Y007882D02*
X034780Y007882D01*
X034780Y007783D02*
X033673Y007783D01*
X033614Y007685D02*
X034780Y007685D01*
X034780Y007586D02*
X033614Y007586D01*
X033614Y007488D02*
X034780Y007488D01*
X034780Y007389D02*
X033614Y007389D01*
X033614Y007291D02*
X034780Y007291D01*
X034780Y007192D02*
X033614Y007192D01*
X033614Y007094D02*
X034780Y007094D01*
X034780Y006995D02*
X031460Y006995D01*
X031460Y007002D02*
X031550Y007002D01*
X031614Y007066D01*
X031614Y007787D01*
X031550Y007852D01*
X030750Y007852D01*
X030686Y007787D01*
X030686Y007066D01*
X030750Y007002D01*
X030840Y007002D01*
X030840Y006198D01*
X030750Y006198D01*
X030686Y006134D01*
X030686Y006030D01*
X029828Y006030D01*
X029810Y006074D01*
X029724Y006160D01*
X029611Y006207D01*
X029489Y006207D01*
X029376Y006160D01*
X029290Y006074D01*
X029243Y005961D01*
X029243Y005839D01*
X029290Y005726D01*
X029376Y005640D01*
X029489Y005593D01*
X029532Y005593D01*
X029555Y005570D01*
X030686Y005570D01*
X030686Y005413D01*
X030750Y005348D01*
X030840Y005348D01*
X030840Y005264D01*
X030887Y005150D01*
X031410Y004627D01*
X031410Y004359D01*
X031475Y004295D01*
X032077Y004295D01*
X032129Y004346D01*
X032148Y004313D01*
X032176Y004285D01*
X032210Y004265D01*
X032248Y004255D01*
X032474Y004255D01*
X032474Y004650D01*
X032574Y004650D01*
X032574Y004255D01*
X032800Y004255D01*
X032838Y004265D01*
X032872Y004285D01*
X032900Y004313D01*
X032920Y004347D01*
X032930Y004385D01*
X032930Y004650D01*
X032574Y004650D01*
X032574Y004750D01*
X032474Y004750D01*
X032474Y005145D01*
X032248Y005145D01*
X032210Y005135D01*
X032176Y005115D01*
X032148Y005087D01*
X032129Y005054D01*
X032077Y005105D01*
X031870Y005105D01*
X031588Y005387D01*
X031614Y005413D01*
X031614Y006134D01*
X031550Y006198D01*
X031460Y006198D01*
X031460Y007002D01*
X031460Y006897D02*
X034780Y006897D01*
X034780Y006798D02*
X031460Y006798D01*
X031460Y006700D02*
X034780Y006700D01*
X034780Y006601D02*
X031460Y006601D01*
X031460Y006503D02*
X034780Y006503D01*
X034780Y006404D02*
X031460Y006404D01*
X031460Y006306D02*
X034780Y006306D01*
X034780Y006207D02*
X033598Y006207D01*
X033596Y006208D02*
X033562Y006228D01*
X033524Y006238D01*
X033200Y006238D01*
X033200Y005823D01*
X033654Y005823D01*
X033654Y006108D01*
X033644Y006146D01*
X033624Y006180D01*
X033596Y006208D01*
X033654Y006109D02*
X034780Y006109D01*
X034780Y006010D02*
X033654Y006010D01*
X033654Y005912D02*
X034780Y005912D01*
X034780Y005813D02*
X033200Y005813D01*
X033200Y005823D02*
X033200Y005723D01*
X033200Y005308D01*
X033524Y005308D01*
X033562Y005318D01*
X033596Y005338D01*
X033624Y005366D01*
X033644Y005400D01*
X033654Y005439D01*
X033654Y005723D01*
X033200Y005723D01*
X033100Y005723D01*
X033100Y005308D01*
X032776Y005308D01*
X032738Y005318D01*
X032704Y005338D01*
X032676Y005366D01*
X032656Y005400D01*
X032646Y005439D01*
X032646Y005723D01*
X033100Y005723D01*
X033100Y005823D01*
X032646Y005823D01*
X032646Y006108D01*
X032656Y006146D01*
X032676Y006180D01*
X032704Y006208D01*
X032738Y006228D01*
X032776Y006238D01*
X033100Y006238D01*
X033100Y005823D01*
X033200Y005823D01*
X033200Y005912D02*
X033100Y005912D01*
X033100Y006010D02*
X033200Y006010D01*
X033200Y006109D02*
X033100Y006109D01*
X033100Y006207D02*
X033200Y006207D01*
X033100Y005813D02*
X031614Y005813D01*
X031614Y005715D02*
X032646Y005715D01*
X032646Y005616D02*
X031614Y005616D01*
X031614Y005518D02*
X032646Y005518D01*
X032651Y005419D02*
X031614Y005419D01*
X031655Y005321D02*
X032734Y005321D01*
X032800Y005145D02*
X032574Y005145D01*
X032574Y004750D01*
X032930Y004750D01*
X032930Y005015D01*
X032920Y005053D01*
X032900Y005087D01*
X032872Y005115D01*
X032838Y005135D01*
X032800Y005145D01*
X032858Y005124D02*
X034780Y005124D01*
X034780Y005222D02*
X031753Y005222D01*
X031852Y005124D02*
X032190Y005124D01*
X032474Y005124D02*
X032574Y005124D01*
X032574Y005025D02*
X032474Y005025D01*
X032474Y004927D02*
X032574Y004927D01*
X032574Y004828D02*
X032474Y004828D01*
X032574Y004730D02*
X034718Y004730D01*
X034780Y004828D02*
X032930Y004828D01*
X032930Y004927D02*
X034780Y004927D01*
X034780Y005025D02*
X032927Y005025D01*
X033100Y005321D02*
X033200Y005321D01*
X033200Y005419D02*
X033100Y005419D01*
X033100Y005518D02*
X033200Y005518D01*
X033200Y005616D02*
X033100Y005616D01*
X033100Y005715D02*
X033200Y005715D01*
X033654Y005715D02*
X034780Y005715D01*
X034780Y005616D02*
X033654Y005616D01*
X033654Y005518D02*
X034780Y005518D01*
X034780Y005419D02*
X033649Y005419D01*
X033566Y005321D02*
X034780Y005321D01*
X035120Y005321D02*
X037245Y005321D01*
X037245Y005419D02*
X035120Y005419D01*
X035120Y005518D02*
X037245Y005518D01*
X037245Y005616D02*
X035120Y005616D01*
X035120Y005715D02*
X037245Y005715D01*
X037245Y005813D02*
X035120Y005813D01*
X035120Y005912D02*
X037245Y005912D01*
X037245Y006010D02*
X035120Y006010D01*
X035120Y006109D02*
X037245Y006109D01*
X037245Y006207D02*
X036131Y006207D01*
X036130Y006206D02*
X036195Y006270D01*
X036195Y007031D01*
X036130Y007095D01*
X035370Y007095D01*
X035305Y007031D01*
X035305Y006270D01*
X035370Y006206D01*
X036130Y006206D01*
X036195Y006306D02*
X037245Y006306D01*
X037245Y006404D02*
X036195Y006404D01*
X036195Y006503D02*
X037245Y006503D01*
X037245Y006601D02*
X036195Y006601D01*
X036195Y006700D02*
X037245Y006700D01*
X037245Y006798D02*
X036195Y006798D01*
X036195Y006897D02*
X037245Y006897D01*
X037245Y006995D02*
X036195Y006995D01*
X036132Y007094D02*
X037245Y007094D01*
X037245Y007192D02*
X035120Y007192D01*
X035120Y007094D02*
X035368Y007094D01*
X035305Y006995D02*
X035120Y006995D01*
X035120Y006897D02*
X035305Y006897D01*
X035305Y006798D02*
X035120Y006798D01*
X035120Y006700D02*
X035305Y006700D01*
X035305Y006601D02*
X035120Y006601D01*
X035120Y006503D02*
X035305Y006503D01*
X035305Y006404D02*
X035120Y006404D01*
X035120Y006306D02*
X035305Y006306D01*
X035369Y006207D02*
X035120Y006207D01*
X035120Y005222D02*
X037245Y005222D01*
X037245Y005124D02*
X035120Y005124D01*
X035120Y005025D02*
X037245Y005025D01*
X037245Y004927D02*
X035120Y004927D01*
X035120Y004828D02*
X037245Y004828D01*
X037245Y004730D02*
X035124Y004730D01*
X035120Y004631D02*
X037245Y004631D01*
X037083Y004533D02*
X036293Y004533D01*
X036281Y004545D02*
X035520Y004545D01*
X035456Y004480D01*
X035456Y003720D01*
X035520Y003655D01*
X036281Y003655D01*
X036345Y003720D01*
X036345Y004480D01*
X036281Y004545D01*
X036345Y004434D02*
X037031Y004434D01*
X037031Y004336D02*
X036345Y004336D01*
X036345Y004237D02*
X037031Y004237D01*
X037031Y004139D02*
X036345Y004139D01*
X036345Y004040D02*
X037031Y004040D01*
X037031Y003942D02*
X036345Y003942D01*
X036345Y003843D02*
X037031Y003843D01*
X037031Y003745D02*
X036345Y003745D01*
X035456Y003745D02*
X034051Y003745D01*
X033936Y003646D02*
X038623Y003646D01*
X038623Y003645D02*
X038657Y003626D01*
X038696Y003615D01*
X039002Y003615D01*
X039002Y004052D01*
X039098Y004052D01*
X039098Y003615D01*
X039404Y003615D01*
X039443Y003626D01*
X039477Y003645D01*
X039505Y003673D01*
X039524Y003707D01*
X039535Y003746D01*
X039535Y004052D01*
X039098Y004052D01*
X039098Y004148D01*
X039002Y004148D01*
X039002Y004052D01*
X038565Y004052D01*
X038565Y003746D01*
X038576Y003707D01*
X038595Y003673D01*
X038623Y003645D01*
X038566Y003745D02*
X037920Y003745D01*
X037920Y003843D02*
X038565Y003843D01*
X038565Y003942D02*
X037920Y003942D01*
X037920Y004040D02*
X038565Y004040D01*
X038565Y004148D02*
X039002Y004148D01*
X039002Y004585D01*
X038696Y004585D01*
X038657Y004574D01*
X038623Y004555D01*
X038595Y004527D01*
X038576Y004493D01*
X038565Y004454D01*
X038565Y004148D01*
X038565Y004237D02*
X037920Y004237D01*
X037920Y004139D02*
X039002Y004139D01*
X039098Y004139D02*
X039550Y004139D01*
X039535Y004148D02*
X039535Y004454D01*
X039524Y004493D01*
X039505Y004527D01*
X039477Y004555D01*
X039443Y004574D01*
X039404Y004585D01*
X039098Y004585D01*
X039098Y004148D01*
X039535Y004148D01*
X039535Y004237D02*
X039550Y004237D01*
X039550Y004336D02*
X039535Y004336D01*
X039535Y004434D02*
X039550Y004434D01*
X039550Y004533D02*
X039499Y004533D01*
X039550Y004631D02*
X037705Y004631D01*
X037705Y004730D02*
X039550Y004730D01*
X039550Y004828D02*
X037705Y004828D01*
X037705Y004927D02*
X039550Y004927D01*
X039550Y005025D02*
X037705Y005025D01*
X037705Y005124D02*
X039550Y005124D01*
X039550Y005222D02*
X037705Y005222D01*
X037705Y005321D02*
X039550Y005321D01*
X039550Y005419D02*
X037705Y005419D01*
X037705Y005518D02*
X039550Y005518D01*
X039550Y005616D02*
X037705Y005616D01*
X037705Y005715D02*
X039550Y005715D01*
X039550Y005813D02*
X037705Y005813D01*
X037705Y005912D02*
X039550Y005912D01*
X039550Y006010D02*
X037705Y006010D01*
X037705Y006109D02*
X039550Y006109D01*
X039550Y006207D02*
X037705Y006207D01*
X037705Y006306D02*
X039550Y006306D01*
X039550Y006404D02*
X037705Y006404D01*
X037705Y006503D02*
X039550Y006503D01*
X039550Y006601D02*
X037705Y006601D01*
X037705Y006700D02*
X039550Y006700D01*
X039550Y006798D02*
X037705Y006798D01*
X037705Y006897D02*
X039550Y006897D01*
X039550Y006995D02*
X037705Y006995D01*
X037705Y007094D02*
X039550Y007094D01*
X039550Y007192D02*
X037705Y007192D01*
X037705Y007291D02*
X039550Y007291D01*
X039550Y007389D02*
X037705Y007389D01*
X037705Y007488D02*
X039550Y007488D01*
X039550Y007586D02*
X037705Y007586D01*
X037705Y007685D02*
X039550Y007685D01*
X039550Y007783D02*
X037705Y007783D01*
X037705Y007882D02*
X039550Y007882D01*
X039550Y007980D02*
X037705Y007980D01*
X037705Y008079D02*
X039550Y008079D01*
X039550Y008177D02*
X037705Y008177D01*
X037705Y008276D02*
X039550Y008276D01*
X039550Y008374D02*
X037705Y008374D01*
X037705Y008473D02*
X039550Y008473D01*
X039550Y008571D02*
X037705Y008571D01*
X037705Y008670D02*
X039550Y008670D01*
X039550Y008768D02*
X037705Y008768D01*
X037705Y008867D02*
X039550Y008867D01*
X039550Y008965D02*
X037705Y008965D01*
X037705Y009064D02*
X039550Y009064D01*
X039550Y009162D02*
X037705Y009162D01*
X037705Y009261D02*
X039550Y009261D01*
X039550Y009359D02*
X037705Y009359D01*
X037705Y009458D02*
X039550Y009458D01*
X039550Y009556D02*
X037705Y009556D01*
X037705Y009655D02*
X039550Y009655D01*
X039550Y009753D02*
X037705Y009753D01*
X037705Y009852D02*
X039550Y009852D01*
X039550Y009950D02*
X037705Y009950D01*
X037705Y010049D02*
X039550Y010049D01*
X039550Y010147D02*
X037705Y010147D01*
X037705Y010246D02*
X039550Y010246D01*
X039550Y010344D02*
X037705Y010344D01*
X037705Y010443D02*
X039550Y010443D01*
X039550Y010541D02*
X037705Y010541D01*
X037705Y010640D02*
X039550Y010640D01*
X039550Y010738D02*
X037705Y010738D01*
X037705Y010837D02*
X039550Y010837D01*
X039550Y010935D02*
X037705Y010935D01*
X037705Y011034D02*
X039550Y011034D01*
X039550Y011132D02*
X037643Y011132D01*
X037545Y011231D02*
X039550Y011231D01*
X039550Y011329D02*
X037446Y011329D01*
X037348Y011428D02*
X039550Y011428D01*
X039524Y011526D02*
X037249Y011526D01*
X037151Y011625D02*
X039425Y011625D01*
X039327Y011723D02*
X037052Y011723D01*
X036954Y011822D02*
X039228Y011822D01*
X039130Y011920D02*
X036855Y011920D01*
X036757Y012019D02*
X039031Y012019D01*
X038933Y012117D02*
X036680Y012117D01*
X036680Y012216D02*
X038834Y012216D01*
X038736Y012314D02*
X036680Y012314D01*
X036680Y012413D02*
X038637Y012413D01*
X038539Y012511D02*
X036664Y012511D01*
X036589Y012610D02*
X038440Y012610D01*
X038342Y012708D02*
X036589Y012708D01*
X036782Y012807D02*
X038243Y012807D01*
X038145Y012905D02*
X036782Y012905D01*
X036783Y013004D02*
X038046Y013004D01*
X037948Y013102D02*
X036783Y013102D01*
X036783Y013201D02*
X037849Y013201D01*
X037751Y013299D02*
X036783Y013299D01*
X036783Y013398D02*
X037652Y013398D01*
X037554Y013496D02*
X036783Y013496D01*
X036783Y013595D02*
X037022Y013595D01*
X036995Y013693D02*
X036783Y013693D01*
X036818Y013792D02*
X036699Y013792D01*
X036720Y013890D02*
X036600Y013890D01*
X036593Y013989D02*
X036502Y013989D01*
X036494Y014087D02*
X035997Y014087D01*
X036012Y013730D02*
X036280Y013730D01*
X036443Y013567D01*
X036443Y013344D01*
X036311Y013344D01*
X035790Y013344D01*
X035779Y013354D01*
X035745Y013374D01*
X035707Y013384D01*
X035628Y013384D01*
X035550Y013384D01*
X035511Y013374D01*
X035477Y013354D01*
X035467Y013344D01*
X035208Y013344D01*
X035208Y013617D01*
X035320Y013730D01*
X035488Y013730D01*
X035490Y013726D01*
X035576Y013640D01*
X035689Y013593D01*
X035811Y013593D01*
X035924Y013640D01*
X036010Y013726D01*
X036012Y013730D01*
X035977Y013693D02*
X036317Y013693D01*
X036415Y013595D02*
X035814Y013595D01*
X035686Y013595D02*
X035208Y013595D01*
X035208Y013496D02*
X036443Y013496D01*
X036443Y013398D02*
X035208Y013398D01*
X035283Y013693D02*
X035523Y013693D01*
X035628Y013384D02*
X035628Y013037D01*
X035628Y013037D01*
X035628Y013384D01*
X035628Y013299D02*
X035628Y013299D01*
X035628Y013201D02*
X035628Y013201D01*
X035628Y013102D02*
X035628Y013102D01*
X035628Y013004D02*
X035628Y013004D01*
X035628Y012905D02*
X035628Y012905D01*
X035628Y012807D02*
X035628Y012807D01*
X035628Y012708D02*
X035628Y012708D01*
X035499Y012708D02*
X034420Y012708D01*
X034468Y012610D02*
X035834Y012610D01*
X035852Y012708D02*
X035758Y012708D01*
X035736Y012511D02*
X034554Y012511D01*
X034640Y012413D02*
X035720Y012413D01*
X035720Y012314D02*
X034726Y012314D01*
X034812Y012216D02*
X035720Y012216D01*
X035720Y012117D02*
X034898Y012117D01*
X034985Y012019D02*
X035720Y012019D01*
X035720Y011920D02*
X035071Y011920D01*
X035169Y011822D02*
X035720Y011822D01*
X035720Y011723D02*
X035267Y011723D01*
X035366Y011625D02*
X035720Y011625D01*
X035720Y011526D02*
X035464Y011526D01*
X035520Y011428D02*
X035720Y011428D01*
X035796Y011329D02*
X035520Y011329D01*
X035520Y011231D02*
X035894Y011231D01*
X035993Y011132D02*
X035520Y011132D01*
X035520Y011034D02*
X036091Y011034D01*
X036190Y010935D02*
X035520Y010935D01*
X035520Y010837D02*
X036288Y010837D01*
X036387Y010738D02*
X035520Y010738D01*
X035430Y010640D02*
X036420Y010640D01*
X036420Y010541D02*
X035331Y010541D01*
X035233Y010443D02*
X036420Y010443D01*
X036420Y010344D02*
X035134Y010344D01*
X035120Y010246D02*
X035314Y010246D01*
X035323Y010255D02*
X035295Y010227D01*
X035276Y010193D01*
X035265Y010154D01*
X035265Y009848D01*
X035702Y009848D01*
X035702Y009752D01*
X035798Y009752D01*
X035798Y009848D01*
X036235Y009848D01*
X036235Y010154D01*
X036224Y010193D01*
X036205Y010227D01*
X036177Y010255D01*
X036143Y010274D01*
X036104Y010285D01*
X035798Y010285D01*
X035798Y009848D01*
X035702Y009848D01*
X035702Y010285D01*
X035396Y010285D01*
X035357Y010274D01*
X035323Y010255D01*
X035265Y010147D02*
X035120Y010147D01*
X035120Y010049D02*
X035265Y010049D01*
X035265Y009950D02*
X035120Y009950D01*
X035120Y009852D02*
X035265Y009852D01*
X035265Y009752D02*
X035265Y009446D01*
X035276Y009407D01*
X035295Y009373D01*
X035323Y009345D01*
X035357Y009326D01*
X035396Y009315D01*
X035702Y009315D01*
X035702Y009752D01*
X035265Y009752D01*
X035265Y009655D02*
X035120Y009655D01*
X035120Y009753D02*
X035702Y009753D01*
X035798Y009753D02*
X036420Y009753D01*
X036420Y009655D02*
X036235Y009655D01*
X036235Y009752D02*
X035798Y009752D01*
X035798Y009315D01*
X036104Y009315D01*
X036143Y009326D01*
X036177Y009345D01*
X036205Y009373D01*
X036224Y009407D01*
X036235Y009446D01*
X036235Y009752D01*
X036235Y009852D02*
X036420Y009852D01*
X036420Y009950D02*
X036235Y009950D01*
X036235Y010049D02*
X036420Y010049D01*
X036420Y010147D02*
X036235Y010147D01*
X036186Y010246D02*
X036420Y010246D01*
X036880Y010246D02*
X037245Y010246D01*
X037245Y010344D02*
X036880Y010344D01*
X036880Y010443D02*
X037245Y010443D01*
X037245Y010541D02*
X036880Y010541D01*
X036880Y010640D02*
X037245Y010640D01*
X037245Y010738D02*
X036880Y010738D01*
X036880Y010837D02*
X037245Y010837D01*
X037190Y010935D02*
X036840Y010935D01*
X036742Y011034D02*
X037091Y011034D01*
X036993Y011132D02*
X036643Y011132D01*
X036545Y011231D02*
X036894Y011231D01*
X036796Y011329D02*
X036446Y011329D01*
X036348Y011428D02*
X036697Y011428D01*
X036599Y011526D02*
X036249Y011526D01*
X036180Y011625D02*
X036500Y011625D01*
X036402Y011723D02*
X036180Y011723D01*
X036180Y011822D02*
X036303Y011822D01*
X036220Y011920D02*
X036180Y011920D01*
X036180Y012019D02*
X036220Y012019D01*
X036220Y012117D02*
X036180Y012117D01*
X036180Y012216D02*
X036220Y012216D01*
X036220Y012314D02*
X036180Y012314D01*
X036192Y012413D02*
X036220Y012413D01*
X036236Y012511D02*
X036192Y012511D01*
X036192Y012610D02*
X036249Y012610D01*
X036249Y012708D02*
X036192Y012708D01*
X036933Y014186D02*
X036995Y014186D01*
X036995Y014284D02*
X036835Y014284D01*
X036736Y014383D02*
X036995Y014383D01*
X036995Y014481D02*
X036638Y014481D01*
X037302Y015301D02*
X037302Y015301D01*
X036995Y016550D02*
X035933Y016550D01*
X036019Y016648D02*
X036995Y016648D01*
X036980Y018914D02*
X036782Y018914D01*
X036782Y019012D02*
X036938Y019012D01*
X031719Y019012D02*
X031662Y019012D01*
X031719Y018914D02*
X031564Y018914D01*
X027072Y013102D02*
X026852Y013102D01*
X028671Y010541D02*
X028751Y010541D01*
X027940Y009655D02*
X027800Y009655D01*
X027742Y009556D02*
X028014Y009556D01*
X028113Y009458D02*
X027644Y009458D01*
X027568Y009162D02*
X028132Y009162D01*
X028034Y009064D02*
X027666Y009064D01*
X027760Y008965D02*
X027940Y008965D01*
X027940Y008867D02*
X027760Y008867D01*
X027760Y008768D02*
X027940Y008768D01*
X027940Y008670D02*
X027760Y008670D01*
X027819Y008571D02*
X027999Y008571D01*
X027918Y008473D02*
X028098Y008473D01*
X028049Y008079D02*
X027651Y008079D01*
X027733Y008177D02*
X027553Y008177D01*
X027520Y008210D02*
X027180Y008210D01*
X026940Y007970D01*
X026940Y007630D01*
X027180Y007390D01*
X027520Y007390D01*
X027760Y007630D01*
X027760Y007970D01*
X027520Y008210D01*
X027634Y008276D02*
X026750Y008276D01*
X026750Y008374D02*
X027536Y008374D01*
X027147Y008177D02*
X026750Y008177D01*
X026750Y008079D02*
X027049Y008079D01*
X026950Y007980D02*
X026750Y007980D01*
X026750Y007882D02*
X026940Y007882D01*
X026940Y007783D02*
X026750Y007783D01*
X026750Y007685D02*
X026940Y007685D01*
X026984Y007586D02*
X026750Y007586D01*
X026750Y007488D02*
X027083Y007488D01*
X027164Y007250D02*
X026900Y006986D01*
X026900Y006850D01*
X027300Y006850D01*
X027300Y007250D01*
X027164Y007250D01*
X027106Y007192D02*
X026750Y007192D01*
X026750Y007094D02*
X027007Y007094D01*
X026909Y006995D02*
X026750Y006995D01*
X026750Y006897D02*
X026900Y006897D01*
X026900Y006750D02*
X026900Y006614D01*
X027164Y006350D01*
X027300Y006350D01*
X027300Y006750D01*
X026900Y006750D01*
X026900Y006700D02*
X026750Y006700D01*
X026750Y006798D02*
X027300Y006798D01*
X027300Y006750D02*
X027300Y006850D01*
X027400Y006850D01*
X027400Y007250D01*
X027536Y007250D01*
X027800Y006986D01*
X027800Y006850D01*
X027400Y006850D01*
X027400Y006750D01*
X027800Y006750D01*
X027800Y006614D01*
X027536Y006350D01*
X027400Y006350D01*
X027400Y006750D01*
X027300Y006750D01*
X027300Y006700D02*
X027400Y006700D01*
X027400Y006798D02*
X027940Y006798D01*
X027940Y006700D02*
X027800Y006700D01*
X027787Y006601D02*
X027969Y006601D01*
X027940Y006630D02*
X028180Y006390D01*
X028520Y006390D01*
X028760Y006630D01*
X028760Y006970D01*
X028520Y007210D01*
X028180Y007210D01*
X027940Y006970D01*
X027940Y006630D01*
X028068Y006503D02*
X027689Y006503D01*
X027590Y006404D02*
X028166Y006404D01*
X028180Y006210D02*
X027940Y005970D01*
X027940Y005630D01*
X028180Y005390D01*
X028520Y005390D01*
X028760Y005630D01*
X028760Y005970D01*
X028520Y006210D01*
X028180Y006210D01*
X028177Y006207D02*
X027523Y006207D01*
X027520Y006210D02*
X027180Y006210D01*
X026940Y005970D01*
X026940Y005630D01*
X027180Y005390D01*
X027520Y005390D01*
X027760Y005630D01*
X027760Y005970D01*
X027520Y006210D01*
X027621Y006109D02*
X028079Y006109D01*
X027980Y006010D02*
X027720Y006010D01*
X027760Y005912D02*
X027940Y005912D01*
X027940Y005813D02*
X027760Y005813D01*
X027760Y005715D02*
X027940Y005715D01*
X027954Y005616D02*
X027746Y005616D01*
X027647Y005518D02*
X028053Y005518D01*
X028151Y005419D02*
X027549Y005419D01*
X027520Y005210D02*
X027180Y005210D01*
X026940Y004970D01*
X026940Y004630D01*
X027180Y004390D01*
X027520Y004390D01*
X027760Y004630D01*
X027760Y004970D01*
X027520Y005210D01*
X027606Y005124D02*
X028037Y005124D01*
X028136Y005222D02*
X026750Y005222D01*
X026750Y005124D02*
X027094Y005124D01*
X026995Y005025D02*
X026750Y005025D01*
X026750Y004927D02*
X026940Y004927D01*
X026940Y004828D02*
X026750Y004828D01*
X026750Y004730D02*
X026940Y004730D01*
X026940Y004631D02*
X026750Y004631D01*
X026750Y004533D02*
X027038Y004533D01*
X027136Y004434D02*
X026750Y004434D01*
X026750Y004336D02*
X031434Y004336D01*
X031410Y004434D02*
X028620Y004434D01*
X028536Y004350D02*
X028800Y004614D01*
X028800Y004750D01*
X028400Y004750D01*
X028400Y004850D01*
X028300Y004850D01*
X028300Y005250D01*
X028164Y005250D01*
X027900Y004986D01*
X027900Y004850D01*
X028300Y004850D01*
X028300Y004750D01*
X027900Y004750D01*
X027900Y004614D01*
X028164Y004350D01*
X028300Y004350D01*
X028300Y004750D01*
X028400Y004750D01*
X028400Y004350D01*
X028536Y004350D01*
X028400Y004434D02*
X028300Y004434D01*
X028300Y004533D02*
X028400Y004533D01*
X028400Y004631D02*
X028300Y004631D01*
X028300Y004730D02*
X028400Y004730D01*
X028400Y004828D02*
X031210Y004828D01*
X031308Y004730D02*
X028800Y004730D01*
X028800Y004631D02*
X031407Y004631D01*
X031410Y004533D02*
X028719Y004533D01*
X028800Y004850D02*
X028400Y004850D01*
X028400Y005250D01*
X028536Y005250D01*
X028800Y004986D01*
X028800Y004850D01*
X028800Y004927D02*
X031111Y004927D01*
X031013Y005025D02*
X028761Y005025D01*
X028663Y005124D02*
X030914Y005124D01*
X030858Y005222D02*
X028564Y005222D01*
X028400Y005222D02*
X028300Y005222D01*
X028300Y005124D02*
X028400Y005124D01*
X028400Y005025D02*
X028300Y005025D01*
X028300Y004927D02*
X028400Y004927D01*
X028300Y004828D02*
X027760Y004828D01*
X027760Y004730D02*
X027900Y004730D01*
X027900Y004631D02*
X027760Y004631D01*
X027662Y004533D02*
X027981Y004533D01*
X028080Y004434D02*
X027564Y004434D01*
X027520Y004210D02*
X027180Y004210D01*
X026940Y003970D01*
X026940Y003630D01*
X027180Y003390D01*
X027520Y003390D01*
X027760Y003630D01*
X027760Y003970D01*
X027520Y004210D01*
X027591Y004139D02*
X028109Y004139D01*
X028010Y004040D02*
X027690Y004040D01*
X027760Y003942D02*
X027940Y003942D01*
X027940Y003843D02*
X027760Y003843D01*
X027760Y003745D02*
X027940Y003745D01*
X027940Y003646D02*
X027760Y003646D01*
X027677Y003548D02*
X028023Y003548D01*
X028121Y003449D02*
X027579Y003449D01*
X027536Y003250D02*
X027400Y003250D01*
X027400Y002850D01*
X027300Y002850D01*
X027300Y003250D01*
X027164Y003250D01*
X026900Y002986D01*
X026900Y002850D01*
X027300Y002850D01*
X027300Y002750D01*
X026900Y002750D01*
X026900Y002614D01*
X027164Y002350D01*
X027300Y002350D01*
X027300Y002750D01*
X027400Y002750D01*
X027400Y002850D01*
X027800Y002850D01*
X027800Y002986D01*
X027536Y003250D01*
X027633Y003154D02*
X028124Y003154D01*
X028180Y003210D02*
X027940Y002970D01*
X027940Y002630D01*
X028180Y002390D01*
X028520Y002390D01*
X028760Y002630D01*
X028760Y002970D01*
X028520Y003210D01*
X028180Y003210D01*
X028025Y003055D02*
X027731Y003055D01*
X027800Y002957D02*
X027940Y002957D01*
X027940Y002858D02*
X027800Y002858D01*
X027800Y002750D02*
X027400Y002750D01*
X027400Y002350D01*
X027536Y002350D01*
X027800Y002614D01*
X027800Y002750D01*
X027800Y002661D02*
X027940Y002661D01*
X027940Y002760D02*
X027400Y002760D01*
X027400Y002858D02*
X027300Y002858D01*
X027300Y002760D02*
X026750Y002760D01*
X026750Y002858D02*
X026900Y002858D01*
X026900Y002957D02*
X026750Y002957D01*
X026750Y003055D02*
X026969Y003055D01*
X027067Y003154D02*
X026750Y003154D01*
X026750Y003252D02*
X030973Y003252D01*
X030969Y003236D02*
X030969Y003048D01*
X031267Y003048D01*
X031267Y002952D01*
X030969Y002952D01*
X030969Y002764D01*
X030979Y002726D01*
X030998Y002691D01*
X031026Y002663D01*
X031061Y002644D01*
X031099Y002633D01*
X031267Y002633D01*
X031267Y002952D01*
X031364Y002952D01*
X031364Y003048D01*
X031662Y003048D01*
X031662Y003236D01*
X031652Y003274D01*
X031632Y003309D01*
X031604Y003337D01*
X031570Y003356D01*
X031532Y003367D01*
X031364Y003367D01*
X031364Y003048D01*
X031267Y003048D01*
X031267Y003367D01*
X031099Y003367D01*
X031061Y003356D01*
X031026Y003337D01*
X030998Y003309D01*
X030979Y003274D01*
X030969Y003236D01*
X030969Y003154D02*
X028576Y003154D01*
X028675Y003055D02*
X030969Y003055D01*
X030969Y002858D02*
X028760Y002858D01*
X028760Y002760D02*
X029619Y002760D01*
X029549Y002731D02*
X029439Y002621D01*
X029380Y002478D01*
X029380Y002322D01*
X029439Y002179D01*
X029549Y002069D01*
X029692Y002010D01*
X030408Y002010D01*
X030551Y002069D01*
X030661Y002179D01*
X030720Y002322D01*
X030720Y002478D01*
X030661Y002621D01*
X030551Y002731D01*
X030408Y002790D01*
X029692Y002790D01*
X029549Y002731D01*
X029479Y002661D02*
X028760Y002661D01*
X028692Y002563D02*
X029415Y002563D01*
X029380Y002464D02*
X028594Y002464D01*
X028520Y002210D02*
X028180Y002210D01*
X027940Y001970D01*
X027940Y001630D01*
X028180Y001390D01*
X028520Y001390D01*
X028760Y001630D01*
X028760Y001970D01*
X028520Y002210D01*
X028561Y002169D02*
X029450Y002169D01*
X029403Y002267D02*
X026750Y002267D01*
X026750Y002169D02*
X027139Y002169D01*
X027180Y002210D02*
X026940Y001970D01*
X026940Y001630D01*
X027180Y001390D01*
X027520Y001390D01*
X027760Y001630D01*
X027760Y001970D01*
X027520Y002210D01*
X027180Y002210D01*
X027148Y002366D02*
X026750Y002366D01*
X026750Y002464D02*
X027050Y002464D01*
X026951Y002563D02*
X026750Y002563D01*
X026750Y002661D02*
X026900Y002661D01*
X027300Y002661D02*
X027400Y002661D01*
X027400Y002563D02*
X027300Y002563D01*
X027300Y002464D02*
X027400Y002464D01*
X027400Y002366D02*
X027300Y002366D01*
X027552Y002366D02*
X029380Y002366D01*
X029548Y002070D02*
X028660Y002070D01*
X028758Y001972D02*
X031119Y001972D01*
X031139Y002021D02*
X031080Y001878D01*
X031080Y001722D01*
X031139Y001579D01*
X031249Y001469D01*
X031392Y001410D01*
X032108Y001410D01*
X032251Y001469D01*
X032361Y001579D01*
X032420Y001722D01*
X032420Y001878D01*
X032361Y002021D01*
X032371Y002010D01*
X032676Y001705D01*
X032683Y001705D01*
X032683Y001692D01*
X032747Y001628D01*
X033153Y001628D01*
X033217Y001692D01*
X033217Y002098D01*
X033153Y002163D01*
X032756Y002163D01*
X032640Y002279D01*
X032640Y002979D01*
X032540Y003079D01*
X032429Y003190D01*
X032291Y003190D01*
X032291Y003262D01*
X032227Y003327D01*
X031742Y003327D01*
X031678Y003262D01*
X031678Y002738D01*
X031742Y002673D01*
X032227Y002673D01*
X032260Y002706D01*
X032260Y002122D01*
X032251Y002131D01*
X032108Y002190D01*
X031392Y002190D01*
X031249Y002131D01*
X031139Y002021D01*
X031188Y002070D02*
X030552Y002070D01*
X030650Y002169D02*
X031341Y002169D01*
X031080Y001873D02*
X028760Y001873D01*
X028760Y001775D02*
X029655Y001775D01*
X029692Y001790D02*
X029549Y001731D01*
X029439Y001621D01*
X029380Y001478D01*
X029380Y001322D01*
X029439Y001179D01*
X029549Y001069D01*
X029692Y001010D01*
X030408Y001010D01*
X030551Y001069D01*
X030661Y001179D01*
X030720Y001322D01*
X030720Y001478D01*
X030661Y001621D01*
X030551Y001731D01*
X030408Y001790D01*
X029692Y001790D01*
X029494Y001676D02*
X028760Y001676D01*
X028707Y001578D02*
X029421Y001578D01*
X029381Y001479D02*
X028609Y001479D01*
X028520Y001210D02*
X028180Y001210D01*
X027940Y000970D01*
X027940Y000630D01*
X028180Y000390D01*
X028520Y000390D01*
X028760Y000630D01*
X028760Y000970D01*
X028520Y001210D01*
X028546Y001184D02*
X029438Y001184D01*
X029397Y001282D02*
X026750Y001282D01*
X026750Y001184D02*
X027154Y001184D01*
X027180Y001210D02*
X026940Y000970D01*
X026940Y000630D01*
X027180Y000390D01*
X027520Y000390D01*
X027760Y000630D01*
X027760Y000970D01*
X027520Y001210D01*
X027180Y001210D01*
X027055Y001085D02*
X026750Y001085D01*
X026750Y000987D02*
X026957Y000987D01*
X026940Y000888D02*
X026750Y000888D01*
X026750Y000790D02*
X026940Y000790D01*
X026940Y000691D02*
X026750Y000691D01*
X026757Y000593D02*
X026978Y000593D01*
X027076Y000494D02*
X026856Y000494D01*
X026954Y000396D02*
X027175Y000396D01*
X027053Y000297D02*
X039147Y000297D01*
X039246Y000396D02*
X028525Y000396D01*
X028624Y000494D02*
X031224Y000494D01*
X031249Y000469D02*
X031392Y000410D01*
X032108Y000410D01*
X032251Y000469D01*
X032361Y000579D01*
X032420Y000722D01*
X032420Y000878D01*
X032361Y001021D01*
X032251Y001131D01*
X032108Y001190D01*
X031392Y001190D01*
X031249Y001131D01*
X031139Y001021D01*
X031080Y000878D01*
X031080Y000722D01*
X031139Y000579D01*
X031249Y000469D01*
X031134Y000593D02*
X028722Y000593D01*
X028760Y000691D02*
X031093Y000691D01*
X031080Y000790D02*
X028760Y000790D01*
X028760Y000888D02*
X031084Y000888D01*
X031125Y000987D02*
X028743Y000987D01*
X028645Y001085D02*
X029533Y001085D01*
X029380Y001381D02*
X026750Y001381D01*
X026750Y001479D02*
X027091Y001479D01*
X026993Y001578D02*
X026750Y001578D01*
X026750Y001676D02*
X026940Y001676D01*
X026940Y001775D02*
X026750Y001775D01*
X026750Y001873D02*
X026940Y001873D01*
X026942Y001972D02*
X026750Y001972D01*
X026750Y002070D02*
X027040Y002070D01*
X027561Y002169D02*
X028139Y002169D01*
X028040Y002070D02*
X027660Y002070D01*
X027758Y001972D02*
X027942Y001972D01*
X027940Y001873D02*
X027760Y001873D01*
X027760Y001775D02*
X027940Y001775D01*
X027940Y001676D02*
X027760Y001676D01*
X027707Y001578D02*
X027993Y001578D01*
X028091Y001479D02*
X027609Y001479D01*
X027546Y001184D02*
X028154Y001184D01*
X028055Y001085D02*
X027645Y001085D01*
X027743Y000987D02*
X027957Y000987D01*
X027940Y000888D02*
X027760Y000888D01*
X027760Y000790D02*
X027940Y000790D01*
X027940Y000691D02*
X027760Y000691D01*
X027722Y000593D02*
X027978Y000593D01*
X028076Y000494D02*
X027624Y000494D01*
X027525Y000396D02*
X028175Y000396D01*
X028106Y002464D02*
X027650Y002464D01*
X027749Y002563D02*
X028008Y002563D01*
X027400Y002957D02*
X027300Y002957D01*
X027300Y003055D02*
X027400Y003055D01*
X027400Y003154D02*
X027300Y003154D01*
X027121Y003449D02*
X026750Y003449D01*
X026750Y003351D02*
X031051Y003351D01*
X031267Y003351D02*
X031364Y003351D01*
X031364Y003252D02*
X031267Y003252D01*
X031267Y003154D02*
X031364Y003154D01*
X031364Y003055D02*
X031267Y003055D01*
X031267Y002957D02*
X028760Y002957D01*
X028579Y003449D02*
X034865Y003449D01*
X034876Y003460D02*
X034790Y003374D01*
X034743Y003261D01*
X034743Y003162D01*
X034276Y002695D01*
X033217Y002695D01*
X033217Y002708D01*
X033153Y002772D01*
X032747Y002772D01*
X032683Y002708D01*
X032683Y002302D01*
X032747Y002237D01*
X033153Y002237D01*
X033217Y002302D01*
X033217Y002315D01*
X034433Y002315D01*
X035012Y002893D01*
X035111Y002893D01*
X035224Y002940D01*
X035310Y003026D01*
X035357Y003139D01*
X035357Y003261D01*
X035310Y003374D01*
X035224Y003460D01*
X035111Y003507D01*
X034989Y003507D01*
X034876Y003460D01*
X034780Y003351D02*
X033222Y003351D01*
X033228Y003345D02*
X033200Y003373D01*
X033165Y003393D01*
X033127Y003403D01*
X032979Y003403D01*
X032979Y003124D01*
X033257Y003124D01*
X033257Y003273D01*
X033247Y003311D01*
X033228Y003345D01*
X033257Y003252D02*
X034743Y003252D01*
X034735Y003154D02*
X033257Y003154D01*
X033257Y003067D02*
X032979Y003067D01*
X032979Y003124D01*
X032921Y003124D01*
X032921Y003067D01*
X032643Y003067D01*
X032643Y002918D01*
X032653Y002880D01*
X032672Y002846D01*
X032700Y002818D01*
X032735Y002798D01*
X032773Y002788D01*
X032921Y002788D01*
X032921Y003067D01*
X032979Y003067D01*
X032979Y002788D01*
X033127Y002788D01*
X033165Y002798D01*
X033200Y002818D01*
X033228Y002846D01*
X033247Y002880D01*
X033257Y002918D01*
X033257Y003067D01*
X033257Y003055D02*
X034636Y003055D01*
X034538Y002957D02*
X033257Y002957D01*
X033235Y002858D02*
X034439Y002858D01*
X034341Y002760D02*
X033166Y002760D01*
X032979Y002858D02*
X032921Y002858D01*
X032921Y002957D02*
X032979Y002957D01*
X032979Y003055D02*
X032921Y003055D01*
X032921Y003124D02*
X032643Y003124D01*
X032643Y003273D01*
X032653Y003311D01*
X032672Y003345D01*
X032700Y003373D01*
X032735Y003393D01*
X032773Y003403D01*
X032921Y003403D01*
X032921Y003124D01*
X032921Y003154D02*
X032979Y003154D01*
X032979Y003252D02*
X032921Y003252D01*
X032921Y003351D02*
X032979Y003351D01*
X032678Y003351D02*
X031580Y003351D01*
X031658Y003252D02*
X031678Y003252D01*
X031678Y003154D02*
X031662Y003154D01*
X031662Y003055D02*
X031678Y003055D01*
X031678Y002957D02*
X031364Y002957D01*
X031364Y002952D02*
X031662Y002952D01*
X031662Y002764D01*
X031652Y002726D01*
X031632Y002691D01*
X031604Y002663D01*
X031570Y002644D01*
X031532Y002633D01*
X031364Y002633D01*
X031364Y002952D01*
X031364Y002858D02*
X031267Y002858D01*
X031267Y002760D02*
X031364Y002760D01*
X031364Y002661D02*
X031267Y002661D01*
X031031Y002661D02*
X030621Y002661D01*
X030685Y002563D02*
X032260Y002563D01*
X032260Y002661D02*
X031600Y002661D01*
X031661Y002760D02*
X031678Y002760D01*
X031678Y002858D02*
X031662Y002858D01*
X030970Y002760D02*
X030481Y002760D01*
X030720Y002464D02*
X032260Y002464D01*
X032260Y002366D02*
X030720Y002366D01*
X030697Y002267D02*
X032260Y002267D01*
X032260Y002169D02*
X032159Y002169D01*
X032381Y001972D02*
X032410Y001972D01*
X032420Y001873D02*
X032508Y001873D01*
X032420Y001775D02*
X032607Y001775D01*
X032699Y001676D02*
X032401Y001676D01*
X032359Y001578D02*
X039550Y001578D01*
X039550Y001676D02*
X033201Y001676D01*
X033217Y001775D02*
X039550Y001775D01*
X039550Y001873D02*
X033217Y001873D01*
X033217Y001972D02*
X039550Y001972D01*
X039550Y002070D02*
X033217Y002070D01*
X033183Y002267D02*
X039550Y002267D01*
X039550Y002169D02*
X032750Y002169D01*
X032717Y002267D02*
X032652Y002267D01*
X032640Y002366D02*
X032683Y002366D01*
X032683Y002464D02*
X032640Y002464D01*
X032640Y002563D02*
X032683Y002563D01*
X032683Y002661D02*
X032640Y002661D01*
X032640Y002760D02*
X032734Y002760D01*
X032665Y002858D02*
X032640Y002858D01*
X032640Y002957D02*
X032643Y002957D01*
X032643Y003055D02*
X032564Y003055D01*
X032643Y003154D02*
X032465Y003154D01*
X032291Y003252D02*
X032643Y003252D01*
X032574Y004336D02*
X032474Y004336D01*
X032474Y004434D02*
X032574Y004434D01*
X032574Y004533D02*
X032474Y004533D01*
X032474Y004631D02*
X032574Y004631D01*
X032930Y004631D02*
X034597Y004631D01*
X034477Y004533D02*
X032930Y004533D01*
X032930Y004434D02*
X034356Y004434D01*
X034236Y004336D02*
X032913Y004336D01*
X032135Y004336D02*
X032118Y004336D01*
X030840Y005321D02*
X026750Y005321D01*
X026750Y005419D02*
X027151Y005419D01*
X027053Y005518D02*
X026750Y005518D01*
X026750Y005616D02*
X026954Y005616D01*
X026940Y005715D02*
X026750Y005715D01*
X026750Y005813D02*
X026940Y005813D01*
X026940Y005912D02*
X026750Y005912D01*
X026750Y006010D02*
X026980Y006010D01*
X027079Y006109D02*
X026750Y006109D01*
X026750Y006207D02*
X027177Y006207D01*
X027110Y006404D02*
X026750Y006404D01*
X026750Y006306D02*
X030840Y006306D01*
X030840Y006404D02*
X028534Y006404D01*
X028632Y006503D02*
X030840Y006503D01*
X030840Y006601D02*
X028731Y006601D01*
X028760Y006700D02*
X030840Y006700D01*
X030840Y006798D02*
X028760Y006798D01*
X028760Y006897D02*
X030840Y006897D01*
X030840Y006995D02*
X028735Y006995D01*
X028636Y007094D02*
X030686Y007094D01*
X030686Y007192D02*
X028538Y007192D01*
X028617Y007488D02*
X030686Y007488D01*
X030686Y007586D02*
X028716Y007586D01*
X028760Y007685D02*
X030686Y007685D01*
X030686Y007783D02*
X028760Y007783D01*
X028760Y007882D02*
X033291Y007882D01*
X033390Y007980D02*
X028750Y007980D01*
X028651Y008079D02*
X033488Y008079D01*
X033587Y008177D02*
X031767Y008177D01*
X031866Y008276D02*
X033685Y008276D01*
X033784Y008374D02*
X031964Y008374D01*
X032063Y008473D02*
X033880Y008473D01*
X033880Y008571D02*
X032161Y008571D01*
X032260Y008670D02*
X033880Y008670D01*
X033880Y008768D02*
X032358Y008768D01*
X032457Y008867D02*
X032515Y008867D01*
X032497Y009359D02*
X032403Y009359D01*
X032403Y009458D02*
X033880Y009458D01*
X033880Y009556D02*
X033249Y009556D01*
X033308Y009655D02*
X033880Y009655D01*
X033880Y009753D02*
X033309Y009753D01*
X033309Y009950D02*
X033880Y009950D01*
X033880Y009852D02*
X032932Y009852D01*
X032835Y009852D02*
X032120Y009852D01*
X032120Y009950D02*
X032457Y009950D01*
X032457Y010049D02*
X032120Y010049D01*
X032120Y010130D02*
X032120Y010130D01*
X032392Y009753D02*
X032457Y009753D01*
X032458Y009655D02*
X032403Y009655D01*
X032403Y009556D02*
X032517Y009556D01*
X032835Y009556D02*
X032931Y009556D01*
X032931Y009655D02*
X032835Y009655D01*
X032835Y009753D02*
X032931Y009753D01*
X032931Y009950D02*
X032835Y009950D01*
X032835Y010049D02*
X032931Y010049D01*
X032931Y010147D02*
X032835Y010147D01*
X032836Y010246D02*
X033880Y010246D01*
X033880Y010344D02*
X032934Y010344D01*
X032651Y010541D02*
X032622Y010541D01*
X032622Y010640D02*
X032678Y010640D01*
X032678Y010738D02*
X032622Y010738D01*
X032622Y010837D02*
X032678Y010837D01*
X032678Y010935D02*
X032622Y010935D01*
X032626Y011132D02*
X032726Y011132D01*
X032726Y011231D02*
X032626Y011231D01*
X032626Y011329D02*
X032726Y011329D01*
X032726Y011428D02*
X032626Y011428D01*
X032270Y011625D02*
X032240Y011625D01*
X032240Y011723D02*
X032270Y011723D01*
X032272Y011822D02*
X032240Y011822D01*
X032240Y011920D02*
X032336Y011920D01*
X033063Y011132D02*
X033085Y011132D01*
X033291Y010935D02*
X033351Y010935D01*
X033749Y010935D02*
X033880Y010935D01*
X033880Y010837D02*
X033826Y010837D01*
X033857Y010738D02*
X033880Y010738D01*
X033880Y010640D02*
X033857Y010640D01*
X033880Y010541D02*
X033816Y010541D01*
X033880Y010443D02*
X033726Y010443D01*
X033880Y010147D02*
X033288Y010147D01*
X033309Y010049D02*
X033880Y010049D01*
X033374Y010443D02*
X033291Y010443D01*
X033269Y009359D02*
X033880Y009359D01*
X033880Y009261D02*
X033269Y009261D01*
X033269Y009162D02*
X033880Y009162D01*
X033880Y009064D02*
X033269Y009064D01*
X033269Y008965D02*
X033880Y008965D01*
X033880Y008867D02*
X033252Y008867D01*
X032686Y007783D02*
X031614Y007783D01*
X031614Y007685D02*
X032686Y007685D01*
X032686Y007586D02*
X031614Y007586D01*
X031614Y007488D02*
X032686Y007488D01*
X032686Y007389D02*
X031614Y007389D01*
X031614Y007291D02*
X032686Y007291D01*
X032686Y007192D02*
X031614Y007192D01*
X031614Y007094D02*
X032686Y007094D01*
X032702Y006207D02*
X031460Y006207D01*
X031614Y006109D02*
X032646Y006109D01*
X032646Y006010D02*
X031614Y006010D01*
X031614Y005912D02*
X032646Y005912D01*
X030840Y006207D02*
X028523Y006207D01*
X028621Y006109D02*
X029325Y006109D01*
X029263Y006010D02*
X028720Y006010D01*
X028760Y005912D02*
X029243Y005912D01*
X029254Y005813D02*
X028760Y005813D01*
X028760Y005715D02*
X029302Y005715D01*
X029434Y005616D02*
X028746Y005616D01*
X028647Y005518D02*
X030686Y005518D01*
X030686Y005419D02*
X028549Y005419D01*
X027939Y005025D02*
X027705Y005025D01*
X027760Y004927D02*
X027900Y004927D01*
X028591Y004139D02*
X033995Y004139D01*
X034116Y004237D02*
X026750Y004237D01*
X026750Y004139D02*
X027109Y004139D01*
X027010Y004040D02*
X026750Y004040D01*
X026750Y003942D02*
X026940Y003942D01*
X026940Y003843D02*
X026750Y003843D01*
X026750Y003745D02*
X026940Y003745D01*
X026940Y003646D02*
X026750Y003646D01*
X026750Y003548D02*
X027023Y003548D01*
X028677Y003548D02*
X039550Y003548D01*
X039550Y003646D02*
X039477Y003646D01*
X039534Y003745D02*
X039550Y003745D01*
X039550Y003843D02*
X039535Y003843D01*
X039535Y003942D02*
X039550Y003942D01*
X039550Y004040D02*
X039535Y004040D01*
X039098Y004040D02*
X039002Y004040D01*
X039002Y003942D02*
X039098Y003942D01*
X039098Y003843D02*
X039002Y003843D01*
X039002Y003745D02*
X039098Y003745D01*
X039098Y003646D02*
X039002Y003646D01*
X039550Y003449D02*
X035235Y003449D01*
X035320Y003351D02*
X039550Y003351D01*
X039550Y003252D02*
X035357Y003252D01*
X035357Y003154D02*
X039550Y003154D01*
X039550Y003055D02*
X035322Y003055D01*
X035240Y002957D02*
X039550Y002957D01*
X039550Y002858D02*
X034977Y002858D01*
X034878Y002760D02*
X039550Y002760D01*
X039550Y002661D02*
X034780Y002661D01*
X034681Y002563D02*
X039550Y002563D01*
X039550Y002464D02*
X034583Y002464D01*
X034484Y002366D02*
X039550Y002366D01*
X039550Y001479D02*
X033217Y001479D01*
X033217Y001508D02*
X033153Y001572D01*
X032747Y001572D01*
X032683Y001508D01*
X032683Y001102D01*
X032747Y001037D01*
X032753Y001037D01*
X032690Y000974D01*
X032643Y000861D01*
X032643Y000739D01*
X032690Y000626D01*
X032776Y000540D01*
X032889Y000493D01*
X033011Y000493D01*
X033124Y000540D01*
X033210Y000626D01*
X033257Y000739D01*
X033257Y000861D01*
X033210Y000974D01*
X033147Y001037D01*
X033153Y001037D01*
X033217Y001102D01*
X033217Y001508D01*
X033217Y001381D02*
X039550Y001381D01*
X039550Y001282D02*
X033217Y001282D01*
X033217Y001184D02*
X039550Y001184D01*
X039550Y001085D02*
X033201Y001085D01*
X033197Y000987D02*
X039550Y000987D01*
X039550Y000888D02*
X033246Y000888D01*
X033257Y000790D02*
X039550Y000790D01*
X039541Y000691D02*
X033237Y000691D01*
X033176Y000593D02*
X039443Y000593D01*
X039344Y000494D02*
X033013Y000494D01*
X032887Y000494D02*
X032276Y000494D01*
X032366Y000593D02*
X032724Y000593D01*
X032663Y000691D02*
X032407Y000691D01*
X032420Y000790D02*
X032643Y000790D01*
X032654Y000888D02*
X032416Y000888D01*
X032375Y000987D02*
X032703Y000987D01*
X032699Y001085D02*
X032297Y001085D01*
X032123Y001184D02*
X032683Y001184D01*
X032683Y001282D02*
X030703Y001282D01*
X030720Y001381D02*
X032683Y001381D01*
X032683Y001479D02*
X032261Y001479D01*
X031377Y001184D02*
X030662Y001184D01*
X030567Y001085D02*
X031203Y001085D01*
X031239Y001479D02*
X030719Y001479D01*
X030679Y001578D02*
X031141Y001578D01*
X031099Y001676D02*
X030606Y001676D01*
X030445Y001775D02*
X031080Y001775D01*
X028690Y004040D02*
X033875Y004040D01*
X034171Y003843D02*
X035456Y003843D01*
X035456Y003942D02*
X034291Y003942D01*
X034412Y004040D02*
X035456Y004040D01*
X035456Y004139D02*
X034532Y004139D01*
X034653Y004237D02*
X035456Y004237D01*
X035456Y004336D02*
X034773Y004336D01*
X034893Y004434D02*
X035456Y004434D01*
X035508Y004533D02*
X035023Y004533D01*
X037868Y004533D02*
X038601Y004533D01*
X038565Y004434D02*
X037920Y004434D01*
X037920Y004336D02*
X038565Y004336D01*
X039002Y004336D02*
X039098Y004336D01*
X039098Y004434D02*
X039002Y004434D01*
X039002Y004533D02*
X039098Y004533D01*
X039098Y004237D02*
X039002Y004237D01*
X037245Y007291D02*
X035120Y007291D01*
X035120Y007389D02*
X037245Y007389D01*
X037245Y007488D02*
X035120Y007488D01*
X035120Y007586D02*
X037245Y007586D01*
X037245Y007685D02*
X035120Y007685D01*
X035120Y007783D02*
X035367Y007783D01*
X035305Y007882D02*
X035120Y007882D01*
X035120Y007980D02*
X035305Y007980D01*
X035305Y008079D02*
X035120Y008079D01*
X035120Y008177D02*
X035305Y008177D01*
X035305Y008276D02*
X035120Y008276D01*
X035120Y008374D02*
X035305Y008374D01*
X035305Y008473D02*
X035120Y008473D01*
X035120Y008571D02*
X035305Y008571D01*
X035369Y008670D02*
X035120Y008670D01*
X035120Y008768D02*
X035968Y008768D01*
X036066Y008867D02*
X035120Y008867D01*
X035120Y008965D02*
X036165Y008965D01*
X036263Y009064D02*
X035120Y009064D01*
X035120Y009162D02*
X036362Y009162D01*
X036420Y009261D02*
X035120Y009261D01*
X035120Y009359D02*
X035310Y009359D01*
X035265Y009458D02*
X035120Y009458D01*
X035120Y009556D02*
X035265Y009556D01*
X035702Y009556D02*
X035798Y009556D01*
X035798Y009458D02*
X035702Y009458D01*
X035702Y009359D02*
X035798Y009359D01*
X035798Y009655D02*
X035702Y009655D01*
X035702Y009852D02*
X035798Y009852D01*
X035798Y009950D02*
X035702Y009950D01*
X035702Y010049D02*
X035798Y010049D01*
X035798Y010147D02*
X035702Y010147D01*
X035702Y010246D02*
X035798Y010246D01*
X036235Y009556D02*
X036420Y009556D01*
X036420Y009458D02*
X036235Y009458D01*
X036190Y009359D02*
X036420Y009359D01*
X036880Y009359D02*
X037245Y009359D01*
X037245Y009261D02*
X036880Y009261D01*
X036880Y009162D02*
X037245Y009162D01*
X037245Y009064D02*
X036880Y009064D01*
X036815Y008965D02*
X037245Y008965D01*
X037245Y008867D02*
X036717Y008867D01*
X036618Y008768D02*
X037245Y008768D01*
X037245Y008670D02*
X036520Y008670D01*
X036421Y008571D02*
X037245Y008571D01*
X037245Y008473D02*
X036323Y008473D01*
X036224Y008374D02*
X037245Y008374D01*
X037245Y008276D02*
X036195Y008276D01*
X036195Y008177D02*
X037245Y008177D01*
X037245Y008079D02*
X036195Y008079D01*
X036195Y007980D02*
X037245Y007980D01*
X037245Y007882D02*
X036195Y007882D01*
X036133Y007783D02*
X037245Y007783D01*
X037245Y009458D02*
X036880Y009458D01*
X036880Y009556D02*
X037245Y009556D01*
X037245Y009655D02*
X036880Y009655D01*
X036880Y009753D02*
X037245Y009753D01*
X037245Y009852D02*
X036880Y009852D01*
X036880Y009950D02*
X037245Y009950D01*
X037245Y010049D02*
X036880Y010049D01*
X036880Y010147D02*
X037245Y010147D01*
X033418Y012708D02*
X032805Y012708D01*
X030835Y009261D02*
X030721Y009261D01*
X030732Y009250D02*
X030704Y009278D01*
X030670Y009297D01*
X030632Y009307D01*
X030483Y009307D01*
X030483Y009029D01*
X030762Y009029D01*
X030762Y009177D01*
X030752Y009215D01*
X030732Y009250D01*
X030762Y009162D02*
X030778Y009162D01*
X030778Y009064D02*
X030762Y009064D01*
X030762Y008965D02*
X030778Y008965D01*
X030778Y008867D02*
X030762Y008867D01*
X030742Y008768D02*
X030807Y008768D01*
X030483Y008768D02*
X030426Y008768D01*
X030426Y008867D02*
X030483Y008867D01*
X030483Y008965D02*
X030426Y008965D01*
X030426Y009064D02*
X030483Y009064D01*
X030483Y009162D02*
X030426Y009162D01*
X030426Y009261D02*
X030483Y009261D01*
X031582Y008473D02*
X028602Y008473D01*
X028701Y008571D02*
X031681Y008571D01*
X030686Y007389D02*
X026750Y007389D01*
X026750Y007291D02*
X030686Y007291D01*
X030686Y006109D02*
X029775Y006109D01*
X028162Y007192D02*
X027594Y007192D01*
X027693Y007094D02*
X028064Y007094D01*
X027965Y006995D02*
X027791Y006995D01*
X027800Y006897D02*
X027940Y006897D01*
X027400Y006897D02*
X027300Y006897D01*
X027300Y006995D02*
X027400Y006995D01*
X027400Y007094D02*
X027300Y007094D01*
X027300Y007192D02*
X027400Y007192D01*
X027617Y007488D02*
X028083Y007488D01*
X027984Y007586D02*
X027716Y007586D01*
X027760Y007685D02*
X027940Y007685D01*
X027940Y007783D02*
X027760Y007783D01*
X027760Y007882D02*
X027940Y007882D01*
X027950Y007980D02*
X027750Y007980D01*
X027098Y008473D02*
X026750Y008473D01*
X026750Y008571D02*
X026999Y008571D01*
X026940Y008670D02*
X026750Y008670D01*
X026750Y008768D02*
X026940Y008768D01*
X026940Y008867D02*
X026750Y008867D01*
X026750Y008965D02*
X026940Y008965D01*
X027034Y009064D02*
X026750Y009064D01*
X026750Y009162D02*
X027132Y009162D01*
X026900Y009852D02*
X026750Y009852D01*
X026750Y009950D02*
X026900Y009950D01*
X026962Y010049D02*
X026750Y010049D01*
X026750Y010147D02*
X027061Y010147D01*
X026913Y006601D02*
X026750Y006601D01*
X026750Y006503D02*
X027011Y006503D01*
X027300Y006503D02*
X027400Y006503D01*
X027400Y006601D02*
X027300Y006601D01*
X027300Y006404D02*
X027400Y006404D01*
D28*
X031045Y009000D02*
X031150Y009000D01*
X031250Y009100D01*
X031250Y009565D01*
X031250Y010235D02*
X031250Y010500D01*
X031115Y010635D01*
X031115Y010900D01*
X031115Y011165D01*
X031550Y011600D01*
X031785Y010900D02*
X032050Y010900D01*
X032050Y012200D01*
X031050Y013200D01*
X031050Y013577D01*
X030585Y011700D02*
X030550Y011665D01*
X030550Y011300D01*
X030483Y011233D01*
X030483Y010300D01*
X032050Y010900D02*
X032250Y010700D01*
X032315Y010700D01*
X032115Y010900D01*
X032050Y010900D01*
X034150Y014300D02*
X036550Y014300D01*
X036750Y014100D01*
X039045Y014100D02*
X039045Y013605D01*
X039050Y013600D01*
X039045Y013100D02*
X039045Y012605D01*
X039050Y012600D01*
X039050Y014600D02*
X039045Y014605D01*
X039045Y015100D01*
X035050Y017600D02*
X035050Y018200D01*
X034650Y018600D01*
X035050Y017600D02*
X034650Y017200D01*
X034650Y016700D01*
X034150Y016700D02*
X033450Y016700D01*
X033250Y016900D01*
X032250Y016900D01*
X032060Y016680D01*
X021481Y016924D02*
X021457Y016900D01*
X006285Y016900D01*
X008285Y015900D02*
X021457Y015900D01*
X021481Y015924D01*
X021481Y014924D02*
X021457Y014900D01*
X006285Y014900D01*
X008285Y013900D02*
X021457Y013900D01*
X021481Y013924D01*
X021481Y012924D02*
X021457Y012900D01*
X006285Y012900D01*
X008285Y011900D02*
X021457Y011900D01*
X021481Y011924D01*
X021481Y010924D02*
X021457Y010900D01*
X006285Y010900D01*
X008285Y010000D02*
X021406Y010000D01*
X021481Y009924D01*
X021406Y009000D02*
X006285Y009000D01*
X008285Y008000D02*
X021406Y008000D01*
X021481Y007924D01*
X021406Y007000D02*
X006285Y007000D01*
X008285Y006000D02*
X021406Y006000D01*
X021481Y005924D01*
X021406Y005000D02*
X006285Y005000D01*
X008285Y004100D02*
X021306Y004100D01*
X021481Y003924D01*
X021481Y004924D02*
X021406Y005000D01*
X021481Y006924D02*
X021406Y007000D01*
X021481Y008924D02*
X021406Y009000D01*
X031985Y003000D02*
X032350Y003000D01*
X032450Y002900D01*
X032450Y002200D01*
X032755Y001895D01*
X032950Y001895D01*
X032950Y001305D02*
X032950Y000800D01*
X032950Y002505D02*
X034355Y002505D01*
X035050Y003200D01*
X021457Y017900D02*
X008285Y017900D01*
X006285Y018800D02*
X021357Y018800D01*
X021481Y018924D01*
X021357Y019800D02*
X008285Y019800D01*
X006285Y020800D02*
X021357Y020800D01*
X021481Y020924D01*
X021357Y021800D02*
X021481Y021924D01*
X021357Y021800D02*
X008285Y021800D01*
X006285Y022800D02*
X021357Y022800D01*
X021481Y022924D01*
X021357Y023800D02*
X021481Y023924D01*
X021357Y023800D02*
X008285Y023800D01*
X006285Y024700D02*
X021250Y024700D01*
X021450Y024893D01*
X021481Y024924D01*
X021257Y025700D02*
X021481Y025924D01*
X021257Y025700D02*
X008285Y025700D01*
X006285Y026700D02*
X021257Y026700D01*
X021481Y026924D01*
X021257Y027700D02*
X021481Y027924D01*
X021257Y027700D02*
X008285Y027700D01*
X021357Y019800D02*
X021481Y019924D01*
X021481Y017924D02*
X021457Y017900D01*
D29*
X027350Y017800D02*
X027850Y018300D01*
X028650Y018300D01*
X028850Y018100D01*
X029615Y018100D01*
X030285Y018100D02*
X030350Y018100D01*
X030540Y017860D01*
X031149Y017860D01*
X031199Y017860D01*
X031199Y017663D02*
X031036Y017660D01*
X030850Y017660D01*
X030850Y017400D01*
X030750Y017300D01*
X030285Y017300D01*
X029615Y017300D02*
X027850Y017300D01*
X027350Y016800D01*
X027850Y016300D02*
X027350Y015800D01*
X027850Y015300D02*
X027350Y014800D01*
X027850Y015300D02*
X028650Y015300D01*
X029050Y015700D01*
X029615Y015700D01*
X029450Y015300D02*
X030750Y015300D01*
X030950Y015100D01*
X031195Y015100D01*
X031199Y015104D01*
X031199Y014907D02*
X029757Y014907D01*
X029750Y014900D01*
X030161Y014711D02*
X029550Y014100D01*
X029750Y013700D02*
X029750Y012900D01*
X030250Y012500D02*
X030250Y013800D01*
X030540Y014120D01*
X031169Y014120D01*
X031199Y014120D01*
X031176Y013930D02*
X030750Y013930D01*
X030585Y013735D01*
X030585Y011700D01*
X030450Y011565D01*
X029915Y011700D02*
X029350Y011700D01*
X028950Y011300D01*
X027750Y011300D01*
X027350Y011700D01*
X027350Y011800D01*
X027350Y010800D02*
X027850Y010300D01*
X028750Y010300D01*
X029124Y010674D01*
X029617Y010674D01*
X028950Y011800D02*
X028350Y011800D01*
X028950Y011800D02*
X029350Y012200D01*
X029950Y012200D01*
X030250Y012500D01*
X031050Y013577D02*
X031199Y013726D01*
X032276Y013726D01*
X032550Y014000D01*
X032850Y013700D01*
X033270Y013700D01*
X033270Y013053D01*
X033266Y013037D01*
X033550Y012600D02*
X033424Y012474D01*
X033424Y011500D01*
X033550Y010700D02*
X032985Y010700D01*
X032985Y010635D01*
X032650Y010300D01*
X032050Y010300D01*
X031950Y010200D01*
X031950Y009667D01*
X032017Y009500D01*
X032476Y009126D02*
X031650Y008300D01*
X027850Y008300D01*
X027350Y008800D01*
X032476Y009126D02*
X032883Y009126D01*
X034050Y008400D02*
X034050Y013034D01*
X034054Y013037D01*
X034250Y013037D02*
X034250Y013037D01*
X034250Y012600D01*
X034950Y011800D01*
X035350Y011400D01*
X035350Y010800D01*
X034950Y010400D01*
X034950Y004700D01*
X033850Y003800D01*
X028350Y003800D01*
X033150Y007427D02*
X033150Y007500D01*
X034050Y008400D01*
X033750Y012600D02*
X033850Y012700D01*
X033850Y013031D01*
X033857Y013037D01*
X033850Y013044D01*
X033850Y014100D01*
X034050Y014300D01*
X034150Y014300D01*
X035038Y013688D02*
X035250Y013900D01*
X035750Y013900D01*
X036350Y013900D01*
X036613Y013637D01*
X036613Y013037D01*
X036416Y013037D02*
X036420Y012533D01*
X036450Y012400D01*
X036022Y012472D02*
X035950Y012400D01*
X036022Y012472D02*
X036022Y013037D01*
X036927Y013923D02*
X036750Y014100D01*
X036927Y013923D02*
X037302Y013923D01*
X037950Y013700D02*
X038450Y013100D01*
X038450Y013105D01*
X038455Y013100D01*
X037950Y013700D02*
X037950Y014800D01*
X037843Y014907D01*
X037302Y014907D01*
X037302Y015104D02*
X038046Y015104D01*
X038150Y015000D01*
X038150Y014300D01*
X038450Y014000D01*
X038450Y014105D01*
X038455Y014100D01*
X038455Y015100D02*
X038450Y015105D01*
X038450Y015200D01*
X038250Y015400D01*
X037850Y015400D01*
X037555Y015695D01*
X037302Y015695D01*
X037310Y015890D02*
X037302Y015892D01*
X037310Y015890D02*
X037650Y015890D01*
X037900Y015650D01*
X038500Y015650D01*
X038550Y015700D01*
X038050Y016000D02*
X038050Y016100D01*
X037860Y016280D01*
X037326Y016280D01*
X037302Y016285D01*
X037329Y016480D02*
X037302Y016482D01*
X037329Y016480D02*
X038850Y016500D01*
X039150Y016800D01*
X039150Y020200D01*
X038650Y020700D01*
X038650Y029800D01*
X037850Y030600D01*
X031685Y030600D01*
X031015Y030600D02*
X030350Y030600D01*
X029050Y029300D01*
X027850Y029300D01*
X027350Y028800D01*
X027850Y028300D02*
X027350Y027800D01*
X027850Y027300D02*
X027350Y026800D01*
X027850Y026300D02*
X027350Y025800D01*
X027850Y026300D02*
X028650Y026300D01*
X028850Y026500D01*
X028850Y027200D01*
X030750Y029100D01*
X032515Y029100D01*
X033185Y029100D02*
X036150Y029100D01*
X036750Y028500D01*
X036750Y026900D01*
X037750Y025900D01*
X037750Y020700D01*
X038550Y019900D01*
X038550Y017560D01*
X038450Y017460D01*
X037335Y017460D01*
X037302Y017466D01*
X037302Y017270D02*
X037322Y017270D01*
X038550Y017270D01*
X038750Y017470D01*
X038750Y020000D01*
X037950Y020800D01*
X037950Y026000D01*
X037050Y026910D01*
X037060Y029040D01*
X036450Y029600D01*
X031685Y029600D01*
X031015Y029600D02*
X030650Y029600D01*
X028950Y027900D01*
X028950Y027600D01*
X028650Y027300D01*
X027850Y027300D01*
X027850Y028300D02*
X028650Y028300D01*
X030450Y030100D01*
X032515Y030100D01*
X033185Y030100D02*
X037750Y030100D01*
X038250Y029600D01*
X038250Y020800D01*
X038950Y020100D01*
X038950Y016900D01*
X038750Y016700D01*
X037323Y016680D01*
X037302Y016679D01*
X037302Y016876D02*
X035826Y016876D01*
X035750Y016800D01*
X035550Y017900D02*
X035628Y017978D01*
X035628Y019140D01*
X035431Y019140D02*
X035430Y019158D01*
X035430Y021000D01*
X035050Y021400D01*
X035050Y022900D01*
X034750Y023200D01*
X034750Y023900D01*
X034350Y024400D01*
X034250Y023600D02*
X034250Y023400D01*
X034850Y022800D01*
X034850Y021200D01*
X035230Y020810D01*
X035230Y019155D01*
X035235Y019140D01*
X035040Y019152D02*
X035038Y019140D01*
X035040Y019152D02*
X035040Y020690D01*
X034650Y021100D01*
X034650Y022600D01*
X034450Y022800D01*
X034250Y022800D01*
X034250Y022100D02*
X034250Y021200D01*
X034840Y020600D01*
X034840Y019149D01*
X034841Y019140D01*
X034650Y019134D02*
X034644Y019140D01*
X034650Y019134D02*
X034650Y018600D01*
X034447Y019140D02*
X034450Y019142D01*
X034450Y020400D01*
X033660Y020390D02*
X033660Y019139D01*
X033660Y019140D01*
X033270Y019126D02*
X033266Y019140D01*
X033270Y019126D02*
X033270Y020270D01*
X033150Y020400D01*
X033150Y020900D01*
X033250Y021000D01*
X032650Y021300D02*
X032650Y020600D01*
X033070Y020190D01*
X033070Y019149D01*
X033069Y019140D01*
X032880Y019142D02*
X032872Y019140D01*
X032880Y019142D02*
X032880Y020080D01*
X032350Y020600D01*
X032350Y022100D01*
X032450Y022200D01*
X032650Y022200D01*
X032250Y022800D02*
X032150Y022800D01*
X031950Y022600D01*
X031950Y020700D01*
X032680Y019980D01*
X032680Y019145D01*
X032676Y019140D01*
X032479Y019140D02*
X032479Y018371D01*
X032950Y017900D01*
X032384Y017466D02*
X032550Y017300D01*
X032384Y017466D02*
X031199Y017466D01*
X031199Y018057D02*
X031146Y018060D01*
X030740Y018060D01*
X030650Y018200D01*
X030650Y018500D01*
X030285Y018865D01*
X030285Y018900D01*
X030850Y019135D02*
X030285Y019700D01*
X029615Y019700D02*
X029250Y019700D01*
X028650Y020300D01*
X027850Y020300D01*
X027350Y019800D01*
X027850Y019300D02*
X027350Y018800D01*
X027850Y019300D02*
X028550Y019300D01*
X028950Y018900D01*
X029615Y018900D01*
X030850Y019135D02*
X030850Y018300D01*
X030896Y018254D01*
X031199Y018254D01*
X031199Y018451D02*
X031150Y018500D01*
X031150Y020100D01*
X030750Y020500D01*
X030285Y020500D01*
X029615Y020500D02*
X029350Y020500D01*
X028550Y021300D01*
X027850Y021300D01*
X027350Y020800D01*
X027350Y021800D02*
X027850Y022300D01*
X028650Y022300D01*
X028850Y022500D01*
X028850Y023200D01*
X029250Y023600D01*
X029250Y024900D01*
X029450Y025100D01*
X029450Y025800D01*
X029650Y026000D01*
X029650Y026800D01*
X029950Y027100D01*
X032515Y027100D01*
X033185Y027100D02*
X034350Y027100D01*
X035250Y026200D01*
X036250Y026200D01*
X036950Y025500D01*
X036950Y019277D01*
X036613Y019140D01*
X036420Y019124D02*
X036416Y019140D01*
X036420Y019124D02*
X036420Y019400D01*
X036650Y019600D01*
X036650Y020900D01*
X036350Y021200D01*
X036350Y021300D01*
X036250Y020700D02*
X036250Y020400D01*
X036450Y020200D01*
X036450Y019900D01*
X036220Y019710D01*
X036220Y019181D01*
X036219Y019140D01*
X036022Y019140D02*
X036020Y019168D01*
X036020Y020100D01*
X037350Y020500D02*
X038150Y019700D01*
X038150Y018900D01*
X037540Y018250D01*
X037338Y018250D01*
X037302Y018254D01*
X037302Y018451D02*
X037150Y018602D01*
X037150Y025600D01*
X036350Y026400D01*
X035350Y026400D01*
X034850Y026900D01*
X034850Y027300D01*
X034550Y027600D01*
X031685Y027600D01*
X031015Y027600D02*
X030150Y027600D01*
X029450Y026900D01*
X029450Y026100D01*
X029250Y025900D01*
X029250Y025200D01*
X029050Y025000D01*
X029050Y023700D01*
X028650Y023300D01*
X027850Y023300D01*
X027350Y022800D01*
X027350Y023800D02*
X027850Y024300D01*
X028650Y024300D01*
X028850Y024500D01*
X028850Y025100D01*
X029050Y025300D01*
X029050Y026000D01*
X029250Y026200D01*
X029250Y027000D01*
X030350Y028100D01*
X032515Y028100D01*
X033185Y028100D02*
X034750Y028100D01*
X035050Y027800D01*
X035050Y027000D01*
X035450Y026600D01*
X036450Y026600D01*
X037350Y025700D01*
X037350Y020500D01*
X037550Y020600D02*
X038350Y019800D01*
X038350Y017960D01*
X038250Y017860D01*
X037341Y017860D01*
X037302Y017860D01*
X034650Y017900D02*
X034644Y017906D01*
X034054Y017904D02*
X034050Y017900D01*
X034054Y017904D02*
X034054Y019140D01*
X032090Y019165D02*
X032085Y019140D01*
X032090Y019165D02*
X032090Y020190D01*
X031650Y020600D01*
X031650Y023200D01*
X031850Y023400D01*
X031950Y023400D01*
X031650Y024000D02*
X031450Y024000D01*
X031250Y023800D01*
X031250Y020700D01*
X031890Y020100D01*
X031890Y019178D01*
X031888Y019140D01*
X032650Y021300D02*
X032950Y021600D01*
X028850Y025500D02*
X028650Y025300D01*
X027850Y025300D01*
X027350Y024800D01*
X028850Y025500D02*
X028850Y026100D01*
X029050Y026300D01*
X029050Y027100D01*
X030550Y028600D01*
X031015Y028600D01*
X031685Y028600D02*
X034650Y028600D01*
X035250Y028000D01*
X035250Y027100D01*
X035550Y026800D01*
X036550Y026800D01*
X037550Y025800D01*
X037550Y020600D01*
X032550Y016100D02*
X032538Y016088D01*
X031199Y016088D01*
X031165Y016280D02*
X030930Y016280D01*
X030750Y016100D01*
X030750Y015900D01*
X030550Y015700D01*
X030285Y015700D01*
X031165Y016280D02*
X031199Y016285D01*
X031199Y016482D02*
X030302Y016482D01*
X030285Y016500D01*
X029615Y016500D02*
X028850Y016500D01*
X028650Y016300D01*
X027850Y016300D01*
X029250Y015100D02*
X029450Y015300D01*
X030161Y014711D02*
X031199Y014711D01*
X031199Y014514D02*
X030564Y014514D01*
X029750Y013700D01*
X031176Y013930D02*
X031199Y013923D01*
X032550Y014000D02*
X032550Y014400D01*
X033550Y012600D02*
X033750Y012600D01*
X035038Y013037D02*
X035038Y013688D01*
X032060Y016680D02*
X031230Y016680D01*
X031199Y016679D01*
D30*
X031150Y007427D02*
X031150Y005773D01*
X031150Y005326D01*
X031776Y004700D01*
M02*
