G75*
%MOIN*%
%OFA0B0*%
%FSLAX24Y24*%
%IPPOS*%
%LPD*%
%AMOC8*
5,1,8,0,0,1.08239X$1,22.5*
%
%ADD10C,0.0000*%
%ADD11R,0.3543X0.0591*%
%ADD12R,0.0394X0.0433*%
%ADD13R,0.0551X0.0394*%
%ADD14R,0.0394X0.0551*%
%ADD15R,0.0610X0.0709*%
%ADD16R,0.0512X0.0591*%
D10*
X000450Y003000D02*
X018850Y003000D01*
X018850Y000100D01*
X039720Y000100D01*
X039720Y031596D01*
X018850Y031596D01*
X018850Y028700D01*
X000450Y028700D01*
X000450Y003000D01*
D11*
X002372Y004078D03*
X002372Y005062D03*
X002372Y006046D03*
X002372Y007031D03*
X002372Y008015D03*
X002372Y008999D03*
X002372Y009983D03*
X002372Y010968D03*
X002372Y011952D03*
X002372Y012936D03*
X002372Y013920D03*
X002372Y014905D03*
X002372Y015889D03*
X002372Y016873D03*
X002372Y017857D03*
X002372Y018842D03*
X002372Y019826D03*
X002372Y020810D03*
X002372Y021794D03*
X002372Y022779D03*
X002372Y023763D03*
X002372Y024747D03*
X002372Y025731D03*
X002372Y026716D03*
X002372Y027700D03*
D12*
X005615Y026700D03*
X006285Y026700D03*
X007615Y025700D03*
X008285Y025700D03*
X006285Y024700D03*
X005615Y024700D03*
X007615Y023800D03*
X008285Y023800D03*
X006285Y022800D03*
X005615Y022800D03*
X007615Y021800D03*
X008285Y021800D03*
X006285Y020800D03*
X005615Y020800D03*
X007615Y019800D03*
X008285Y019800D03*
X006285Y018800D03*
X005615Y018800D03*
X007615Y017900D03*
X008285Y017900D03*
X006285Y016900D03*
X005615Y016900D03*
X007615Y015900D03*
X008285Y015900D03*
X006285Y014900D03*
X005615Y014900D03*
X007615Y013900D03*
X008285Y013900D03*
X006285Y012900D03*
X005615Y012900D03*
X007615Y011900D03*
X008285Y011900D03*
X006285Y010900D03*
X005615Y010900D03*
X007615Y010000D03*
X008285Y010000D03*
X006285Y009000D03*
X005615Y009000D03*
X007615Y008000D03*
X008285Y008000D03*
X006285Y007000D03*
X005615Y007000D03*
X007615Y006000D03*
X008285Y006000D03*
X006285Y005000D03*
X005615Y005000D03*
X007615Y004100D03*
X008285Y004100D03*
X030415Y020400D03*
X030415Y021000D03*
X030415Y021600D03*
X030415Y022200D03*
X030415Y022800D03*
X030415Y023400D03*
X030415Y024000D03*
X031085Y024000D03*
X031085Y023400D03*
X031085Y022800D03*
X031085Y022200D03*
X031085Y021600D03*
X031085Y021000D03*
X031085Y020400D03*
X031085Y025500D03*
X030415Y025500D03*
X031815Y026100D03*
X032485Y026100D03*
X031085Y026700D03*
X030415Y026700D03*
X031815Y027400D03*
X032485Y027400D03*
X033215Y028300D03*
X033885Y028300D03*
X032485Y028700D03*
X031815Y028700D03*
X031085Y029100D03*
X030415Y029100D03*
X030415Y027900D03*
X031085Y027900D03*
X037615Y014600D03*
X038285Y014600D03*
X038285Y013600D03*
X037615Y013600D03*
X037615Y012600D03*
X038285Y012600D03*
X008285Y027700D03*
X007615Y027700D03*
D13*
X032283Y004074D03*
X032283Y003326D03*
X031417Y003700D03*
D14*
X033476Y003533D03*
X034224Y003533D03*
X033850Y002667D03*
D15*
X033787Y001200D03*
X034713Y001200D03*
X030413Y004500D03*
X029487Y004500D03*
X032787Y005700D03*
X033713Y005700D03*
D16*
X035276Y005400D03*
X036024Y005400D03*
X033924Y008700D03*
X033176Y008700D03*
X035976Y011900D03*
X036724Y011900D03*
X036824Y014700D03*
X036076Y014700D03*
X035124Y015500D03*
X034376Y015500D03*
X033924Y015500D03*
X033176Y015500D03*
X032224Y015400D03*
X031476Y015400D03*
X031576Y016700D03*
X032324Y016700D03*
X033676Y017300D03*
X034424Y017300D03*
X036076Y016000D03*
X036824Y016000D03*
X036824Y024400D03*
X036076Y024400D03*
M02*
