G75*
%MOIN*%
%OFA0B0*%
%FSLAX24Y24*%
%IPPOS*%
%LPD*%
%AMOC8*
5,1,8,0,0,1.08239X$1,22.5*
%
%ADD10C,0.0000*%
%ADD11C,0.0631*%
%ADD12R,0.3583X0.0631*%
%ADD13R,0.0434X0.0473*%
%ADD14OC8,0.0640*%
%ADD15C,0.0600*%
%ADD16R,0.0158X0.0434*%
%ADD17R,0.0434X0.0158*%
%ADD18R,0.0591X0.0434*%
%ADD19R,0.0709X0.0709*%
%ADD20R,0.0552X0.0631*%
%ADD21R,0.0749X0.0670*%
%ADD22R,0.0355X0.0355*%
%ADD23R,0.0473X0.0434*%
D10*
X000450Y003000D02*
X018850Y003000D01*
X018850Y000100D01*
X039720Y000100D01*
X039720Y031596D01*
X018850Y031596D01*
X018850Y028700D01*
X000450Y028700D01*
X000450Y003000D01*
D11*
X021481Y003924D03*
X021481Y004924D03*
X021481Y005924D03*
X021481Y006924D03*
X021481Y007924D03*
X021481Y008924D03*
X021481Y009924D03*
X021481Y010924D03*
X021481Y011924D03*
X021481Y012924D03*
X021481Y013924D03*
X021481Y014924D03*
X021481Y015924D03*
X021481Y016924D03*
X021481Y017924D03*
X021481Y018924D03*
X021481Y019924D03*
X021481Y020924D03*
X021481Y021924D03*
X021481Y022924D03*
X021481Y023924D03*
X021481Y024924D03*
X021481Y025924D03*
X021481Y026924D03*
X021481Y027924D03*
X023450Y027924D03*
X023450Y026924D03*
X023450Y025924D03*
X023450Y024924D03*
X023450Y023924D03*
X023450Y022924D03*
X023450Y021924D03*
X023450Y020924D03*
X023450Y019924D03*
X023450Y018924D03*
X023450Y017924D03*
X023450Y016924D03*
X023450Y015924D03*
X023450Y014924D03*
X023450Y013924D03*
X023450Y012924D03*
X023450Y011924D03*
X023450Y010924D03*
X023450Y009924D03*
X023450Y008924D03*
X023450Y007924D03*
X023450Y006924D03*
X023450Y005924D03*
X023450Y004924D03*
X023450Y003924D03*
D12*
X002372Y004078D03*
X002372Y005062D03*
X002372Y006046D03*
X002372Y007031D03*
X002372Y008015D03*
X002372Y008999D03*
X002372Y009983D03*
X002372Y010968D03*
X002372Y011952D03*
X002372Y012936D03*
X002372Y013920D03*
X002372Y014905D03*
X002372Y015889D03*
X002372Y016873D03*
X002372Y017857D03*
X002372Y018842D03*
X002372Y019826D03*
X002372Y020810D03*
X002372Y021794D03*
X002372Y022779D03*
X002372Y023763D03*
X002372Y024747D03*
X002372Y025731D03*
X002372Y026716D03*
X002372Y027700D03*
D13*
X005615Y026700D03*
X006285Y026700D03*
X007615Y025700D03*
X008285Y025700D03*
X006285Y024700D03*
X005615Y024700D03*
X007615Y023800D03*
X008285Y023800D03*
X006285Y022800D03*
X005615Y022800D03*
X007615Y021800D03*
X008285Y021800D03*
X006285Y020800D03*
X005615Y020800D03*
X007615Y019800D03*
X008285Y019800D03*
X006285Y018800D03*
X005615Y018800D03*
X007615Y017900D03*
X008285Y017900D03*
X006285Y016900D03*
X005615Y016900D03*
X007615Y015900D03*
X008285Y015900D03*
X006285Y014900D03*
X005615Y014900D03*
X007615Y013900D03*
X008285Y013900D03*
X006285Y012900D03*
X005615Y012900D03*
X007615Y011900D03*
X008285Y011900D03*
X006285Y010900D03*
X005615Y010900D03*
X007615Y010000D03*
X008285Y010000D03*
X006285Y009000D03*
X005615Y009000D03*
X007615Y008000D03*
X008285Y008000D03*
X006285Y007000D03*
X005615Y007000D03*
X007615Y006000D03*
X008285Y006000D03*
X006285Y005000D03*
X005615Y005000D03*
X007615Y004100D03*
X008285Y004100D03*
X029615Y015700D03*
X030285Y015700D03*
X030285Y016500D03*
X029615Y016500D03*
X029615Y017300D03*
X030285Y017300D03*
X030285Y018100D03*
X029615Y018100D03*
X029615Y018900D03*
X030285Y018900D03*
X030285Y019700D03*
X029615Y019700D03*
X029615Y020500D03*
X030285Y020500D03*
X032515Y027100D03*
X033185Y027100D03*
X033185Y028100D03*
X032515Y028100D03*
X031685Y028600D03*
X031015Y028600D03*
X031015Y027600D03*
X031685Y027600D03*
X032515Y029100D03*
X033185Y029100D03*
X033185Y030100D03*
X032515Y030100D03*
X031685Y030600D03*
X031015Y030600D03*
X031015Y029600D03*
X031685Y029600D03*
X030585Y011700D03*
X029915Y011700D03*
X031115Y010900D03*
X031785Y010900D03*
X032315Y010700D03*
X032985Y010700D03*
X031985Y003000D03*
X031315Y003000D03*
X008285Y027700D03*
X007615Y027700D03*
D14*
X027350Y027800D03*
X027350Y026800D03*
X027350Y025800D03*
X027350Y024800D03*
X027350Y023800D03*
X028350Y023800D03*
X028350Y024800D03*
X028350Y025800D03*
X028350Y026800D03*
X028350Y027800D03*
X028350Y028800D03*
X027350Y028800D03*
X027350Y029800D03*
X027350Y030800D03*
X028350Y030800D03*
X028350Y029800D03*
X028350Y022800D03*
X028350Y021800D03*
X028350Y020800D03*
X028350Y019800D03*
X028350Y018800D03*
X028350Y017800D03*
X028350Y016800D03*
X027350Y016800D03*
X027350Y017800D03*
X027350Y018800D03*
X027350Y019800D03*
X027350Y020800D03*
X027350Y021800D03*
X027350Y022800D03*
X027350Y015800D03*
X027350Y014800D03*
X027350Y013800D03*
X027350Y012800D03*
X027350Y011800D03*
X027350Y010800D03*
X028350Y010800D03*
X028350Y011800D03*
X028350Y012800D03*
X028350Y013800D03*
X028350Y014800D03*
X028350Y015800D03*
X028350Y009800D03*
X028350Y008800D03*
X028350Y007800D03*
X028350Y006800D03*
X028350Y005800D03*
X028350Y004800D03*
X027350Y004800D03*
X027350Y005800D03*
X027350Y006800D03*
X027350Y007800D03*
X027350Y008800D03*
X027350Y009800D03*
X027350Y003800D03*
X027350Y002800D03*
X027350Y001800D03*
X027350Y000800D03*
X028350Y000800D03*
X028350Y001800D03*
X028350Y002800D03*
X028350Y003800D03*
D15*
X029770Y002400D02*
X030330Y002400D01*
X030330Y001400D02*
X029770Y001400D01*
X031470Y001800D02*
X032030Y001800D01*
X032030Y000800D02*
X031470Y000800D01*
D16*
X031888Y013037D03*
X032085Y013037D03*
X032282Y013037D03*
X032479Y013037D03*
X032676Y013037D03*
X032872Y013037D03*
X033069Y013037D03*
X033266Y013037D03*
X033463Y013037D03*
X033660Y013037D03*
X033857Y013037D03*
X034054Y013037D03*
X034250Y013037D03*
X034447Y013037D03*
X034644Y013037D03*
X034841Y013037D03*
X035038Y013037D03*
X035235Y013037D03*
X035431Y013037D03*
X035628Y013037D03*
X035825Y013037D03*
X036022Y013037D03*
X036219Y013037D03*
X036416Y013037D03*
X036613Y013037D03*
X036613Y019140D03*
X036416Y019140D03*
X036219Y019140D03*
X036022Y019140D03*
X035825Y019140D03*
X035628Y019140D03*
X035431Y019140D03*
X035235Y019140D03*
X035038Y019140D03*
X034841Y019140D03*
X034644Y019140D03*
X034447Y019140D03*
X034250Y019140D03*
X034054Y019140D03*
X033857Y019140D03*
X033660Y019140D03*
X033463Y019140D03*
X033266Y019140D03*
X033069Y019140D03*
X032872Y019140D03*
X032676Y019140D03*
X032479Y019140D03*
X032282Y019140D03*
X032085Y019140D03*
X031888Y019140D03*
D17*
X031199Y018451D03*
X031199Y018254D03*
X031199Y018057D03*
X031199Y017860D03*
X031199Y017663D03*
X031199Y017466D03*
X031199Y017270D03*
X031199Y017073D03*
X031199Y016876D03*
X031199Y016679D03*
X031199Y016482D03*
X031199Y016285D03*
X031199Y016088D03*
X031199Y015892D03*
X031199Y015695D03*
X031199Y015498D03*
X031199Y015301D03*
X031199Y015104D03*
X031199Y014907D03*
X031199Y014711D03*
X031199Y014514D03*
X031199Y014317D03*
X031199Y014120D03*
X031199Y013923D03*
X031199Y013726D03*
X037302Y013726D03*
X037302Y013923D03*
X037302Y014120D03*
X037302Y014317D03*
X037302Y014514D03*
X037302Y014711D03*
X037302Y014907D03*
X037302Y015104D03*
X037302Y015301D03*
X037302Y015498D03*
X037302Y015695D03*
X037302Y015892D03*
X037302Y016088D03*
X037302Y016285D03*
X037302Y016482D03*
X037302Y016679D03*
X037302Y016876D03*
X037302Y017073D03*
X037302Y017270D03*
X037302Y017466D03*
X037302Y017663D03*
X037302Y017860D03*
X037302Y018057D03*
X037302Y018254D03*
X037302Y018451D03*
D18*
X029617Y010674D03*
X029617Y009926D03*
X030483Y010300D03*
X032017Y009500D03*
X032883Y009874D03*
X032883Y009126D03*
D19*
X035750Y009800D03*
X035750Y008225D03*
X035750Y006650D03*
X035900Y004100D03*
X037475Y004100D03*
X039050Y004100D03*
X035750Y022050D03*
X035750Y023625D03*
X035750Y025200D03*
X036050Y027700D03*
X037625Y027700D03*
X039200Y027700D03*
D20*
X033424Y011500D03*
X032676Y011500D03*
X032524Y004700D03*
X031776Y004700D03*
D21*
X031150Y005773D03*
X031150Y007427D03*
X033150Y007427D03*
X033150Y005773D03*
D22*
X032950Y003095D03*
X032950Y002505D03*
X032950Y001895D03*
X032950Y001305D03*
X031045Y009000D03*
X030455Y009000D03*
X038455Y013100D03*
X039045Y013100D03*
X039045Y014100D03*
X038455Y014100D03*
X038455Y015100D03*
X039045Y015100D03*
D23*
X031250Y010235D03*
X031250Y009565D03*
M02*
